<svg xmlns="http://www.w3.org/2000/svg" width="630.817" height="724.083" viewBox="0 0 630.817 724.083">
  <g id="Groupe_166" data-name="Groupe 166" transform="translate(-7.171)" opacity="0.202">
    <g id="Groupe_125" data-name="Groupe 125" transform="matrix(-0.438, 0.899, -0.899, -0.438, 272.334, 388.618)">
      <path id="Tracé_35" data-name="Tracé 35" d="M35.058,0l3.129,4.815L46.6,4.8c.714,3.3,1.459,6.6,2.191,9.847l2.1-.4L49.53,16.657H17.2Q29.462,53.345,41.734,90.031q-3.269,9.818-6.54,19.636Q17.6,57.257,0,4.854l32.095-.036Z" transform="translate(0)" fill="#f08926"/>
      <path id="Tracé_36" data-name="Tracé 36" d="M32.334,0q1.362,52.219,2.73,104.44Q29.8,88.767,24.538,73.089,12.267,36.543,0,0Z" transform="translate(19.248 18.061)" fill="#fff"/>
      <path id="Tracé_37" data-name="Tracé 37" d="M13.912,0H35.064L0,104.44Q1.416,52.221,2.836,0Z" transform="translate(58.496 18.061)" fill="#fff"/>
      <path id="Tracé_38" data-name="Tracé 38" d="M1.365,1.626l2.1-.4C3.371.82,3.281.4,3.19,0L5.565,4.036Q4.149,56.426,2.73,108.819,1.363,56.429,0,4.036Z" transform="translate(53.308 13.682)" fill="#f4572d"/>
    </g>
    <g id="Groupe_136" data-name="Groupe 136" transform="translate(0 0)">
      <g id="Groupe_135" data-name="Groupe 135">
        <g id="Groupe_128" data-name="Groupe 128" transform="translate(424.115 564.97)">
          <path id="Tracé_58" data-name="Tracé 58" d="M346.964,418.178h0q-5.7-8.158-11.4-16.314,34.976-11.231,69.953-22.459l-45.148,57.96q-5.719-8.186-11.436-16.368l-3.545.456q1.242-1.163,2.474-2.3Z" transform="translate(-335.565 -371.782)" fill="#f08926"/>
          <g id="Groupe_127" data-name="Groupe 127" transform="translate(0)">
            <path id="Tracé_59" data-name="Tracé 59" d="M335.565,416.918q28.292-20.793,56.585-41.592Q369.576,404.308,347,433.288,341.282,425.1,335.565,416.918Z" transform="translate(-322.196 -375.326)" fill="#fff"/>
            <path id="Tracé_60" data-name="Tracé 60" d="M335.565,397.785l69.953-22.459q-29.276,19.389-58.555,38.773Q341.264,405.944,335.565,397.785Z" transform="translate(-335.565 -375.326)" fill="#fff"/>
            <path id="Tracé_61" data-name="Tracé 61" d="M335.565,417.376q1.242-1.163,2.475-2.3l-.9-.97v0q29.276-19.386,58.554-38.773-28.292,20.8-56.585,41.592Z" transform="translate(-325.742 -375.326)" fill="#f4572d"/>
          </g>
        </g>
        <g id="Groupe_129" data-name="Groupe 129" transform="translate(349.401 382.711)">
          <path id="Tracé_62" data-name="Tracé 62" d="M410.973,382.1l.1-3.639q8.977-4.373,17.949-8.749L392.3,330.5l-1.867-11.993q25.113,26.812,50.226,53.622l-17.817,8.685-.235,3.7-3.147-2.054-6.45,3.144q-1.127-1.831-2.252-3.663Z" transform="translate(-378.8 -316.09)" fill="#f08926"/>
          <path id="Tracé_63" data-name="Tracé 63" d="M428.93,379.585q-16.137-31.185-32.275-62.371l13.5,14.412,36.727,39.211Q437.906,375.212,428.93,379.585Z" transform="translate(-396.655 -317.214)" fill="#fff"/>
          <path id="Tracé_64" data-name="Tracé 64" d="M429.669,384.711q-5.231,2.551-10.462,5.1-5.646-36.3-11.294-72.6,14.592,31.94,29.186,63.877Q433.383,382.9,429.669,384.711Z" transform="translate(-407.912 -317.214)" fill="#fff"/>
          <path id="Tracé_65" data-name="Tracé 65" d="M438.431,383.224l-.217-.155c-.549-.89-1.093-1.785-1.643-2.675l-1.127.7h0q-14.595-31.94-29.186-63.877Q422.4,348.4,438.534,379.585Z" transform="translate(-406.259 -317.214)" fill="#f4572d"/>
        </g>
        <g id="Groupe_130" data-name="Groupe 130" transform="translate(370.255 315.651)">
          <path id="Tracé_66" data-name="Tracé 66" d="M364.539,321.08l.516-3.721-2.628-2.108c1.134-1.609,2.276-3.213,3.4-4.786l14.5,11.722q10.418-26.027,20.839-52.056,4.668-3.16,9.334-6.323-13.527,34.157-27.051,68.311l-15.46-12.4Z" transform="translate(-346.649 -253.979)" fill="#f08926"/>
          <path id="Tracé_67" data-name="Tracé 67" d="M372.106,306.112q-4.073-3.294-8.145-6.586,30.49-20.49,60.982-40.977-22.753,26.745-45.507,53.49Q375.772,309.075,372.106,306.112Z" transform="translate(-363.961 -258.549)" fill="#fff"/>
          <path id="Tracé_68" data-name="Tracé 68" d="M366.222,313.431c-.421.587-.847,1.194-1.271,1.789l-.991.43.665-3.611q22.756-26.745,45.507-53.49L367.3,314.2Z" transform="translate(-349.151 -258.549)" fill="#f4572d"/>
          <path id="Tracé_69" data-name="Tracé 69" d="M364.991,315.035l.047-.064-1.076-.77h0l42.833-55.652q-3.232,8.077-6.466,16.152-10.42,26.027-20.839,52.056Z" transform="translate(-345.812 -258.549)" fill="#fff"/>
        </g>
        <g id="Groupe_137" data-name="Groupe 137" transform="translate(0 152.341)">
          <g id="Groupe_132" data-name="Groupe 132" transform="translate(248.556)">
            <path id="Tracé_74" data-name="Tracé 74" d="M375.137,186.572l1.705,3.225-2.228,1.178-1.918-3.112Z" transform="translate(-213.209 -172.691)" fill="#ffb224"/>
            <path id="Tracé_75" data-name="Tracé 75" d="M379.137,191.652a9.985,9.985,0,0,0-1.109.739l-1.768-3.344,1.016-.538,1.918,3.112Z" transform="translate(-223.105 -170.527)" fill="#ffb224"/>
            <path id="Tracé_76" data-name="Tracé 76" d="M401.488,294.8l1.122-.487c-.79,1.107-1.579,2.21-2.369,3.33l-12.106-9.714,5.8-3.931q4.153,3.356,8.3,6.712Z" transform="translate(-271.66 -63.89)" fill="#f08926"/>
            <path id="Tracé_77" data-name="Tracé 77" d="M396.457,198.934c-1.7-3.15-3.391-6.308-5.173-9.612l.036-.019C392.99,192.41,394.7,195.611,396.457,198.934Z" transform="translate(-272.17 -169.641)" fill="#f08926"/>
            <path id="Tracé_78" data-name="Tracé 78" d="M401.655,190.09c-1.717-3.152-3.573-6.534-5.485-10.012l.019-.063q2.667,4.832,5.514,10.048Z" transform="translate(-287.758 -180.014)" fill="#f08926"/>
            <path id="Tracé_79" data-name="Tracé 79" d="M351.824,225.037l5.349-2.716c1.844,3.626,3.637,7.271,5.339,10.833l-5.417,2.585C355.416,232.221,353.644,228.62,351.824,225.037Z" transform="translate(-154.697 -132.768)" fill="#fff"/>
            <path id="Tracé_80" data-name="Tracé 80" d="M345.146,240.145l5.561-2.256c1.539,3.793,3,7.593,4.354,11.3l-5.635,2.055C348.1,247.6,346.659,243.871,345.146,240.145Z" transform="translate(-133.111 -115.382)" fill="#fff"/>
            <path id="Tracé_81" data-name="Tracé 81" d="M346.377,345.2a57.62,57.62,0,0,0,7.39-8.655L358.677,340a63.658,63.658,0,0,1-8.166,9.557Z" transform="translate(-139.333 -5.206)" fill="#fff"/>
            <path id="Tracé_82" data-name="Tracé 82" d="M352.315,314.92a58.26,58.26,0,0,1,10.474,7.063l-3.85,4.6a52.156,52.156,0,0,0-9.379-6.336Z" transform="translate(-150.18 -29.358)" fill="#fff"/>
            <path id="Tracé_83" data-name="Tracé 83" d="M380.215,331.492l0-.563,6,.07,0,.493a33.31,33.31,0,0,0,1.649,10.351l-5.7,1.865A39.246,39.246,0,0,1,380.215,331.492Z" transform="translate(-240.145 -11.48)" fill="#fff"/>
            <path id="Tracé_84" data-name="Tracé 84" d="M353.748,230.025c1.723,3.747,3.372,7.468,4.9,11.058l-5.523,2.343c-1.5-3.535-3.124-7.2-4.822-10.891Z" transform="translate(-143.368 -124.164)" fill="#fff"/>
            <path id="Tracé_85" data-name="Tracé 85" d="M357.454,312.629a42.053,42.053,0,0,1,12.66,2.3L368.15,320.6a36.075,36.075,0,0,0-10.857-1.973Z" transform="translate(-173.877 -31.916)" fill="#fff"/>
            <path id="Tracé_86" data-name="Tracé 86" d="M352.523,347.848a42.59,42.59,0,0,0,9.733-5.489l3.6,4.8a48.571,48.571,0,0,1-11.1,6.259Z" transform="translate(-159.518 1.284)" fill="#fff"/>
            <path id="Tracé_87" data-name="Tracé 87" d="M358.839,443.256c-2.341,3.287-4.814,6.445-7.557,9.652l-4.56-3.9c2.627-3.071,4.991-6.088,7.229-9.233Z" transform="translate(-140.228 110.073)" fill="#fff"/>
            <path id="Tracé_88" data-name="Tracé 88" d="M336.093,409.354l5.76,1.683c-1.132,3.872-2.362,7.764-3.651,11.568l-5.679-1.926C333.781,416.955,334.986,413.147,336.093,409.354Z" transform="translate(-93.181 76.101)" fill="#fff"/>
            <path id="Tracé_89" data-name="Tracé 89" d="M335.192,428.426c1.492-3.622,2.934-7.347,4.282-11.073l5.643,2.04c-1.38,3.808-2.851,7.616-4.377,11.318Z" transform="translate(-102.098 85.034)" fill="#fff"/>
            <path id="Tracé_90" data-name="Tracé 90" d="M340.243,255.723l5.785-1.592c1.054,3.827,2.053,7.781,2.974,11.75l-5.846,1.357C342.256,263.347,341.276,259.471,340.243,255.723Z" transform="translate(-116.674 -97.244)" fill="#fff"/>
            <path id="Tracé_91" data-name="Tracé 91" d="M383.532,322.123l5.135,3.11a30.216,30.216,0,0,0-3.853,10.156l-5.9-1.1A36.372,36.372,0,0,1,383.532,322.123Z" transform="translate(-238.198 -21.314)" fill="#fff"/>
            <path id="Tracé_92" data-name="Tracé 92" d="M343.51,324.51l4.217-4.265a93.324,93.324,0,0,1,8.188,9.3l-4.746,3.67A87.917,87.917,0,0,0,343.51,324.51Z" transform="translate(-130.502 -23.411)" fill="#fff"/>
            <path id="Tracé_93" data-name="Tracé 93" d="M348.149,432.7l5.271,2.866c-2.007,3.7-4.1,7.235-6.225,10.516l-5.038-3.258C344.2,439.673,346.212,436.267,348.149,432.7Z" transform="translate(-125.141 102.173)" fill="#fff"/>
            <path id="Tracé_94" data-name="Tracé 94" d="M338.8,435.07c1.552-3.116,3.107-6.45,4.627-9.908l5.493,2.415c-.387.883-.783,1.729-1.175,2.6-1.531-.995-3.061-1.992-4.557-2.921L341.6,429.8c1.6.995,3.243,2.06,4.886,3.131-.771,1.649-1.547,3.26-2.322,4.816l-.409.819-5.374-2.667Z" transform="translate(-112.65 93.755)" fill="#fff"/>
            <path id="Tracé_95" data-name="Tracé 95" d="M338.557,263.715l5.87-1.236c.826,3.916,1.586,7.921,2.265,11.907l-5.916,1.005C340.111,271.484,339.366,267.557,338.557,263.715Z" transform="translate(-110.795 -87.921)" fill="#fff"/>
            <path id="Tracé_96" data-name="Tracé 96" d="M360.656,352.779l.334-5.99a37.956,37.956,0,0,0,11.028-1.033l1.422,5.829a43.9,43.9,0,0,1-10.393,1.26Q361.845,352.845,360.656,352.779Z" transform="translate(-184.322 5.078)" fill="#fff"/>
            <path id="Tracé_97" data-name="Tracé 97" d="M366.6,225.4l-5.322,2.775q-2.756-5.283-5.631-10.535l5.266-2.879Q363.813,220.061,366.6,225.4Z" transform="translate(-166.89 -141.213)" fill="#fff"/>
            <path id="Tracé_98" data-name="Tracé 98" d="M380.367,347.708a36.175,36.175,0,0,1-4.331-6.435l5.3-2.8a30.224,30.224,0,0,0,3.613,5.37,28.885,28.885,0,0,0,3.095,3.146L384.1,351.5A34.886,34.886,0,0,1,380.367,347.708Z" transform="translate(-231.485 -3.059)" fill="#fff"/>
            <path id="Tracé_99" data-name="Tracé 99" d="M359.715,210.315l5.2-3q3.016,5.226,5.946,10.476l-5.237,2.923Q362.712,215.5,359.715,210.315Z" transform="translate(-179.747 -149.525)" fill="#fff"/>
            <path id="Tracé_100" data-name="Tracé 100" d="M377.876,327.945l-4.5-3.961a42.539,42.539,0,0,1,9.883-8.23l3.118,5.127A36.6,36.6,0,0,0,377.876,327.945Z" transform="translate(-224.171 -28.425)" fill="#fff"/>
            <path id="Tracé_101" data-name="Tracé 101" d="M365.967,316.141a45.2,45.2,0,0,1,12.358-3.364l.734,5.952a39.334,39.334,0,0,0-10.719,2.921Z" transform="translate(-201.182 -31.751)" fill="#fff"/>
            <path id="Tracé_102" data-name="Tracé 102" d="M369.127,349.153l3.088-5.144a33.4,33.4,0,0,0,10.207,4l-1.257,5.865A39.267,39.267,0,0,1,369.127,349.153Z" transform="translate(-211.234 3.127)" fill="#fff"/>
            <path id="Tracé_103" data-name="Tracé 103" d="M344.934,255.514l.311-1.621c-.29-.055-.586-.148-.878-.212q-.927-2.893-1.928-5.81l5.677-1.945c1.329,3.872,2.576,7.756,3.706,11.541l-5.751,1.715C345.708,257.971,345.319,256.74,344.934,255.514Z" transform="translate(-124.14 -106.408)" fill="#fff"/>
            <path id="Tracé_104" data-name="Tracé 104" d="M329.944,352.183l5.8-1.56c1.039,3.869,1.986,7.851,2.813,11.841l-5.876,1.219C331.874,359.805,330.954,355.936,329.944,352.183Z" transform="translate(-84.424 10.513)" fill="#fff"/>
            <path id="Tracé_105" data-name="Tracé 105" d="M336.264,371.06l-5.952.737c-.487-3.927-1.082-7.862-1.768-11.706l5.908-1.054C335.157,362.985,335.766,367.03,336.264,371.06Z" transform="translate(-79.172 19.91)" fill="#fff"/>
            <path id="Tracé_106" data-name="Tracé 106" d="M334.653,379.7l-5.995.265c-.176-3.946-.455-7.921-.834-11.811l5.976-.58C334.186,371.564,334.474,375.645,334.653,379.7Z" transform="translate(-76.04 29.439)" fill="#fff"/>
            <path id="Tracé_107" data-name="Tracé 107" d="M343.593,326.186l-5.863-1.268.159-.741c.737-3.442,1.4-7.1,1.979-10.88l5.933.906c-.6,3.9-1.285,7.673-2.045,11.232Z" transform="translate(-108.154 -31.17)" fill="#fff"/>
            <path id="Tracé_108" data-name="Tracé 108" d="M348.8,341.909a92.687,92.687,0,0,1-4.892,9.648l-5.176-3.035a87.454,87.454,0,0,0,5.152-10.38l3.457,1.45q-1.007-1.562-2.039-3.054l3.9-2.688L345.99,332.7c1.257-3.518,2.407-7.29,3.421-11.214l5.808,1.5c-1.056,4.1-2.261,8.046-3.577,11.733l-.421-.152c1.9,2.843,3.747,5.861,5.5,8.992l-5.235,2.932C350.611,344.932,349.714,343.4,348.8,341.909Z" transform="translate(-121.194 -22.022)" fill="#fff"/>
            <path id="Tracé_109" data-name="Tracé 109" d="M334.962,337.178l5.353-2.707c1.806,3.565,3.52,7.3,5.1,11.107l-5.54,2.3C338.351,344.212,336.7,340.61,334.962,337.178Z" transform="translate(-101.91 -7.524)" fill="#fff"/>
            <path id="Tracé_110" data-name="Tracé 110" d="M332.062,344.506l5.618-2.1c1.4,3.74,2.714,7.627,3.9,11.551l-5.747,1.731C334.687,351.887,333.417,348.126,332.062,344.506Z" transform="translate(-91.932 1.333)" fill="#fff"/>
            <path id="Tracé_111" data-name="Tracé 111" d="M333.856,380.268c0,2.714-.047,5.425-.142,8.063l-5.995-.214c.091-2.565.138-5.207.138-7.853q0-2-.034-3.984l6-.112Q333.861,378.219,333.856,380.268Z" transform="translate(-75.02 39.041)" fill="#fff"/>
            <path id="Tracé_112" data-name="Tracé 112" d="M373.147,185.581l2.087,3.387,1.918,3.112,2.1,3.411-1.031.635-5.466-10.338Z" transform="translate(-215.747 -173.797)" fill="#fff"/>
            <path id="Tracé_113" data-name="Tracé 113" d="M328.82,404.63c.771-3.916,1.448-7.847,2.007-11.684l5.938.87c-.576,3.933-1.268,7.961-2.057,11.977Z" transform="translate(-80.257 57.777)" fill="#fff"/>
            <path id="Tracé_114" data-name="Tracé 114" d="M333.887,397.1l-5.959-.7c.106-.9.207-1.805.3-2.705.313-2.987.569-6.043.758-9.083l5.988.375c-.193,3.124-.455,6.266-.781,9.337C334.1,395.247,334,396.17,333.887,397.1Z" transform="translate(-76.583 48.464)" fill="#fff"/>
            <path id="Tracé_115" data-name="Tracé 115" d="M357.767,446.22l4.428,4.053c-1.232,1.344-2.458,2.648-3.685,3.944l0,0h-4.123l0,0-2.174-2.068C354.056,450.2,355.908,448.254,357.767,446.22Z" transform="translate(-155.186 117.271)" fill="#fff"/>
            <path id="Tracé_116" data-name="Tracé 116" d="M330.38,412.735c1.031-3.833,1.983-7.711,2.83-11.526l5.857,1.3c-.866,3.9-1.839,7.868-2.9,11.788Z" transform="translate(-85.862 67.005)" fill="#fff"/>
            <path id="Tracé_117" data-name="Tracé 117" d="M343.932,305.416c-.315,4.09-.726,8.156-1.221,12.082l-5.952-.747c.48-3.836.883-7.8,1.192-11.8Z" transform="translate(-104.227 -40.486)" fill="#fff"/>
            <path id="Tracé_118" data-name="Tracé 118" d="M337.609,271.826l5.933-.9c.377,2.5.72,5.046,1.046,7.605a14.527,14.527,0,0,0-5.857,1.518C338.384,277.282,338.017,274.524,337.609,271.826Z" transform="translate(-106.684 -78.486)" fill="#fff"/>
            <path id="Tracé_119" data-name="Tracé 119" d="M342.364,308.244l-5.99-.334c.2-3.586.328-7.248.4-10.9h6C342.7,300.772,342.572,304.548,342.364,308.244Z" transform="translate(-102.255 -49.363)" fill="#fff"/>
            <path id="Tracé_120" data-name="Tracé 120" d="M382.336,196.808l-1.652,1.017-2.307-3.744-1.918-3.112-2.07-3.359.427-.263,1.966-1.04Z" transform="translate(-222.287 -172.987)" fill="#fff"/>
            <path id="Tracé_121" data-name="Tracé 121" d="M369.1,199.966c.445.745.881,1.492,1.325,2.237,1.613,2.7,3.224,5.406,4.809,8.113l-5.175,3.033c-.982-1.676-1.986-3.349-2.976-5.021-1.044-1.761-2.079-3.522-3.131-5.279Z" transform="translate(-193.098 -157.733)" fill="#fff"/>
            <path id="Tracé_122" data-name="Tracé 122" d="M376.483,201.855l-4.409-8.34,1.359-.834q3.143,5.131,6.251,10.268l-5.135,3.1q-3.1-5.125-6.23-10.234l1.325-.815,4.327,8.179Z" transform="translate(-206.786 -165.868)" fill="#fff"/>
            <path id="Tracé_123" data-name="Tracé 123" d="M414.919,351.392l-1.274.789c1.422,2.3,2.834,4.615,4.253,6.92l-10.067,4.907q-.664-4.258-1.325-8.516,4.207-2.048,8.414-4.1Z" transform="translate(-325.829 11.372)" fill="#f08926"/>
            <path id="Tracé_125" data-name="Tracé 125" d="M384.927,341.087l2.646-1.418c2.119,3.956,4.6,8.638,6.941,13.363l-2.686,1.331C389.505,349.677,387.037,345.024,384.927,341.087Z" transform="translate(-256.77 -1.72)" fill="#fff"/>
            <path id="Tracé_126" data-name="Tracé 126" d="M390.218,330.956l2.7-1.306c2.185,4.513,4.585,9.051,6.85,13.285l-2.646,1.414C394.841,340.088,392.426,335.518,390.218,330.956Z" transform="translate(-273.223 -12.908)" fill="#fff"/>
            <path id="Tracé_127" data-name="Tracé 127" d="M445.115,407.4l-.127,3c-4.64-.2-9.559-.538-15.037-1.046l.277-2.989C435.656,406.869,440.526,407.207,445.115,407.4Z" transform="translate(-402.677 72.763)" fill="#fff"/>
            <path id="Tracé_128" data-name="Tracé 128" d="M433.712,409.6c-4.792.47-9.739.7-15.122.709l0-3c5.286-.006,10.139-.233,14.834-.692Z" transform="translate(-367.217 73.044)" fill="#fff"/>
            <path id="Tracé_129" data-name="Tracé 129" d="M379.981,370.46a70.937,70.937,0,0,0-1.393-9.119l2.93-.637a73.5,73.5,0,0,1,1.452,9.509c.152,1.833.231,3.7.231,5.688l-3-.146C380.2,373.993,380.127,372.211,379.981,370.46Z" transform="translate(-232.039 21.771)" fill="#fff"/>
            <path id="Tracé_130" data-name="Tracé 130" d="M456.115,409.864c-4.955-.555-9.932-1.177-14.915-1.81l.381-2.976c4.964.633,9.925,1.251,14.868,1.806Z" transform="translate(-437.821 71.326)" fill="#fff"/>
            <path id="Tracé_131" data-name="Tracé 131" d="M422.622,407.2a100.664,100.664,0,0,1-14.756,3.7l-.517-2.955a97.676,97.676,0,0,0,14.313-3.592Z" transform="translate(-332.343 70.523)" fill="#fff"/>
            <path id="Tracé_132" data-name="Tracé 132" d="M382.239,395.315a88.02,88.02,0,0,0,7.466-12.7l2.707,1.3a90.952,90.952,0,0,1-7.72,13.134Z" transform="translate(-248.979 46.24)" fill="#fff"/>
            <path id="Tracé_133" data-name="Tracé 133" d="M400.835,394.825a96.777,96.777,0,0,1-9.949,9.773l-1.939-2.29a93.9,93.9,0,0,0,10.469-10.4l.984.847-.049.011C400.524,393.446,400.67,394.144,400.835,394.825Z" transform="translate(-271.601 56.624)" fill="#fff"/>
            <path id="Tracé_134" data-name="Tracé 134" d="M383.252,349.859a139.42,139.42,0,0,1,5.476,14.134l-2.858.919a135.722,135.722,0,0,0-5.36-13.833Z" transform="translate(-241.637 9.66)" fill="#fff"/>
            <path id="Tracé_135" data-name="Tracé 135" d="M397.008,321.529a56.45,56.45,0,0,1,1.7-13.6l2.91.724a53.556,53.556,0,0,0-1.609,12.876c0,.523.008,1.046.021,1.573l-3,.091Q397.008,322.358,397.008,321.529Z" transform="translate(-289.447 -37.165)" fill="#fff"/>
            <path id="Tracé_136" data-name="Tracé 136" d="M392.6,310.974a97.783,97.783,0,0,1,6.816-13.6L402,298.9a94.739,94.739,0,0,0-6.608,13.189Z" transform="translate(-280.501 -48.957)" fill="#fff"/>
            <path id="Tracé_137" data-name="Tracé 137" d="M398.334,409.4l-1.257-2.724c.5-.229,1-.462,1.492-.7a84.892,84.892,0,0,0,11.291-6.606l1.708,2.468a87.953,87.953,0,0,1-11.691,6.839Q399.106,409.049,398.334,409.4Z" transform="translate(-299.544 64.951)" fill="#fff"/>
            <path id="Tracé_138" data-name="Tracé 138" d="M395.932,323.044c-.282-1.1-.527-2.182-.743-3.258l2.944-.586c.2,1.024.436,2.053.7,3.1a81.534,81.534,0,0,0,3.734,10.9l-2.771,1.149A84.79,84.79,0,0,1,395.932,323.044Z" transform="translate(-286.551 -24.578)" fill="#fff"/>
            <path id="Tracé_139" data-name="Tracé 139" d="M378.888,386.279a72.8,72.8,0,0,0,3.457-14.252l2.974.4a75.968,75.968,0,0,1-3.6,14.845Z" transform="translate(-234.792 34.416)" fill="#fff"/>
            <path id="Tracé_140" data-name="Tracé 140" d="M394.924,287.914l1.221.872h0l1.219.872-.053.072c-1.274,1.782-2.568,3.6-3.852,5.421-1.585,2.246-3.156,4.507-4.659,6.765l-2.5-1.666c1.558-2.335,3.179-4.665,4.813-6.981.79-1.12,1.579-2.223,2.369-3.33C393.966,289.267,394.448,288.579,394.924,287.914Z" transform="translate(-262.535 -59.517)" fill="#fff"/>
            <path id="Tracé_141" data-name="Tracé 141" d="M7.915,8.512Q3.954,5.012,0,1.489L1.249.006,1.254,0H4.162L4.17.006Q7.284,2.775,10.4,5.539Z" transform="translate(291.106 571.742) rotate(-169)" fill="#fff"/>
            <path id="Tracé_142" data-name="Tracé 142" d="M339.76,441.755l-1.869,2.343c-4.06-3.237-8.044-6.3-11.841-9.115l1.786-2.411C331.659,435.407,335.673,438.5,339.76,441.755Z" transform="translate(-77.389 102.031)" fill="#fff"/>
            <path id="Tracé_143" data-name="Tracé 143" d="M399.5,417.411a48.9,48.9,0,0,1,14.534-5.1l.582,2.942a45.946,45.946,0,0,0-13.645,4.771Z" transform="translate(-307.732 79.402)" fill="#fff"/>
            <path id="Tracé_144" data-name="Tracé 144" d="M404.682,437.659a26.6,26.6,0,0,1-13.7,7.565l-.637-2.932a23.65,23.65,0,0,0,12.178-6.723Z" transform="translate(-278.415 105.378)" fill="#fff"/>
            <path id="Tracé_145" data-name="Tracé 145" d="M330.717,449.248l-1.943,2.282q-5.712-4.864-11.475-9.623l1.907-2.314Q324.991,444.353,330.717,449.248Z" transform="translate(-49.822 109.872)" fill="#fff"/>
            <path id="Tracé_146" data-name="Tracé 146" d="M407.906,373.816l-2.637,1.425c-2.208-4.077-4.617-8.332-7.362-13l2.585-1.522C403.258,365.419,405.682,369.7,407.906,373.816Z" transform="translate(-297.639 21.787)" fill="#fff"/>
            <path id="Tracé_147" data-name="Tracé 147" d="M395.578,370.689c2.328,4.615,4.485,9.206,6.409,13.647l-2.754,1.194c-1.9-4.388-4.032-8.926-6.333-13.49Z" transform="translate(-281.121 32.922)" fill="#fff"/>
            <path id="Tracé_148" data-name="Tracé 148" d="M392.93,426.284a56.275,56.275,0,0,1-4.644,14.65L385.6,439.59a53.283,53.283,0,0,0,4.377-13.863Z" transform="translate(-256.62 94.386)" fill="#fff"/>
            <path id="Tracé_149" data-name="Tracé 149" d="M346.048,420.676c4.409,2.076,8.92,4.42,13.407,6.964l-1.482,2.608c-4.42-2.5-8.863-4.811-13.2-6.858Z" transform="translate(-136.708 88.745)" fill="#fff"/>
            <path id="Tracé_150" data-name="Tracé 150" d="M370.136,421.7,369,424.476c-4.492-1.85-9.193-3.582-13.971-5.142l.931-2.853C360.806,418.064,365.575,419.823,370.136,421.7Z" transform="translate(-169.098 84.06)" fill="#fff"/>
            <path id="Tracé_151" data-name="Tracé 151" d="M392.218,413.773l-.487,2.959c-4.981-.821-9.949-1.454-14.769-1.884l.265-2.989C382.124,412.3,387.168,412.939,392.218,413.773Z" transform="translate(-237.617 78.9)" fill="#fff"/>
            <path id="Tracé_152" data-name="Tracé 152" d="M385.3,416.687l-.015-2.089,3-.038.015,2.123c0,4.557-.2,8.937-.584,13.02l-2.985-.282C385.111,425.432,385.3,421.147,385.3,416.687Z" transform="translate(-250.151 81.915)" fill="#fff"/>
            <path id="Tracé_153" data-name="Tracé 153" d="M412.036,431.877l-2.9-.771a34.7,34.7,0,0,1,1.34-4.028,30.312,30.312,0,0,1,6.126-9.646l2.176,2.066a26.98,26.98,0,0,0-5.52,8.7A32.6,32.6,0,0,0,412.036,431.877Z" transform="translate(-332.285 85.122)" fill="#fff"/>
            <path id="Tracé_154" data-name="Tracé 154" d="M388.951,382.177l2.8-1.08c1.823,4.727,3.48,9.534,4.924,14.28l-2.868.872C392.382,391.573,390.748,386.838,388.951,382.177Z" transform="translate(-267.447 44.545)" fill="#fff"/>
            <path id="Tracé_155" data-name="Tracé 155" d="M384.907,403.582l2.972-.409c.694,5.067,1.207,10.127,1.516,15.031l-2.993.191C386.095,413.562,385.593,408.579,384.907,403.582Z" transform="translate(-251.609 69.198)" fill="#fff"/>
            <path id="Tracé_156" data-name="Tracé 156" d="M418.25,441.244l-2.345,1.873a25.112,25.112,0,0,1-5.347-14.737l3-.127A22.123,22.123,0,0,0,418.25,441.244Z" transform="translate(-334.761 97.206)" fill="#fff"/>
            <path id="Tracé_157" data-name="Tracé 157" d="M381.1,417.124l-.811,2.889c-4.76-1.334-9.631-2.521-14.474-3.531l.612-2.934C371.343,414.569,376.279,415.774,381.1,417.124Z" transform="translate(-202.917 80.786)" fill="#fff"/>
            <path id="Tracé_158" data-name="Tracé 158" d="M386.777,394.763c-.165-.682-.311-1.38-.483-2.055l.049-.011,2.858-.728c1.219,4.786,2.292,9.754,3.192,14.764l-2.951.529C388.68,403.029,387.769,398.848,386.777,394.763Z" transform="translate(-257.543 56.686)" fill="#fff"/>
            <path id="Tracé_159" data-name="Tracé 159" d="M389.939,414.811l-1.37.1-.243-2.989,1.4-.108a129.414,129.414,0,0,1,13.761-.174l-.108,3A129.128,129.128,0,0,0,389.939,414.811Z" transform="translate(-272.942 78.543)" fill="#fff"/>
            <path id="Tracé_160" data-name="Tracé 160" d="M416.222,441.235l-.254,2.989a35.449,35.449,0,0,1-14.83-4.67l1.528-2.578A32.4,32.4,0,0,0,416.222,441.235Z" transform="translate(-312.794 106.948)" fill="#fff"/>
            <path id="Tracé_161" data-name="Tracé 161" d="M336.73,426.149c1.5.929,3.027,1.926,4.557,2.921,2.648,1.723,5.322,3.5,8.022,5.391l-1.721,2.46c-2.542-1.778-5.061-3.461-7.557-5.091-1.643-1.071-3.281-2.136-4.886-3.131Z" transform="translate(-106.195 94.857)" fill="#fff"/>
            <path id="Tracé_162" data-name="Tracé 162" d="M411.443,365.366c-1.19-1.958-2.4-3.9-3.594-5.849-1.418-2.305-2.83-4.619-4.253-6.92l1.274-.789,1.276-.79c.622,1.008,1.238,2.021,1.861,3.029q1.28,2.073,2.551,4.149c1.149,1.871,2.307,3.734,3.448,5.611Z" transform="translate(-315.781 10.956)" fill="#fff"/>
            <path id="Tracé_163" data-name="Tracé 163" d="M378.461,429.587a97.766,97.766,0,0,1,1.731-15.122l2.938.595a95.134,95.134,0,0,0-1.672,14.656Z" transform="translate(-231.7 81.809)" fill="#fff"/>
            <path id="Tracé_164" data-name="Tracé 164" d="M377.152,447.8c.508,1.384,1.022,2.75,1.537,4.119l-1.4.529-.013,0h-1.588v0c-.453-1.2-.9-2.4-1.348-3.611Z" transform="translate(-218.529 119.038)" fill="#fff"/>
            <path id="Tracé_165" data-name="Tracé 165" d="M382.972,451.394l-2.862.9a125.809,125.809,0,0,1-3.675-14.714l2.947-.55A123.038,123.038,0,0,0,382.972,451.394Z" transform="translate(-227.256 107.006)" fill="#fff"/>
            <path id="Tracé_166" data-name="Tracé 166" d="M382.854,440.685l-2.978.364c-.614-5.044-.984-10.124-1.107-15.1l3-.074C381.889,430.755,382.251,435.738,382.854,440.685Z" transform="translate(-232.076 94.55)" fill="#fff"/>
            <path id="Tracé_167" data-name="Tracé 167" d="M374.1,417.4a55.051,55.051,0,0,1,7.282-13.524l2.428,1.761a52.16,52.16,0,0,0-6.894,12.8Z" transform="translate(-223.142 69.987)" fill="#fff"/>
            <path id="Tracé_168" data-name="Tracé 168" d="M376.462,400.362c-2.68,2.51-5.358,5.093-7.845,7.783l-2.2-2.034c3.435-3.719,7.184-7.195,10.812-10.558l1.02,1.1,1.018,1.1Q377.871,399.044,376.462,400.362Z" transform="translate(-202.334 60.689)" fill="#fff"/>
            <path id="Tracé_169" data-name="Tracé 169" d="M421.928,233.327l1.164,2.767A73.588,73.588,0,0,0,410.2,243.1l-1.691-2.481A76.742,76.742,0,0,1,421.928,233.327Z" transform="translate(-335.264 -120.477)" fill="#fff"/>
            <path id="Tracé_170" data-name="Tracé 170" d="M328.245,254.344l-1.935-2.294a28.159,28.159,0,0,0,7.193-9.022q.578-1.168,1.037-2.4l2.809,1.063c-.347.908-.728,1.8-1.156,2.661A31.163,31.163,0,0,1,328.245,254.344Z" transform="translate(-75.528 -112.319)" fill="#fff"/>
            <path id="Tracé_171" data-name="Tracé 171" d="M434.218,249.884a92.021,92.021,0,0,0-6.53,13.223L424.9,262a95.051,95.051,0,0,1,6.746-13.653Z" transform="translate(-381.087 -103.708)" fill="#fff"/>
            <path id="Tracé_172" data-name="Tracé 172" d="M425.64,241.831q1.257-1.226,2.574-2.394l1.988,2.25q-1.257,1.111-2.466,2.29a74.819,74.819,0,0,0-7.455,8.516l-2.4-1.8A77.572,77.572,0,0,1,425.64,241.831Z" transform="translate(-362.216 -113.653)" fill="#fff"/>
            <path id="Tracé_173" data-name="Tracé 173" d="M433.3,270.257a105.077,105.077,0,0,0,1.24,14.73l-2.968.438a108.665,108.665,0,0,1-1.274-15.143Z" transform="translate(-392.845 -79.235)" fill="#fff"/>
            <path id="Tracé_174" data-name="Tracé 174" d="M444.71,315.884l.707-1.323c3.372,1.8,6.558,3.5,10.491,3.967l-.351,2.98c-4.191-.5-7.591-2.2-10.846-3.927h0v-1.7Z" transform="translate(-444.71 -29.759)" fill="#fff"/>
            <path id="Tracé_175" data-name="Tracé 175" d="M432.329,274.147l-2.985-.311q.124-1.188.286-2.394a86.421,86.421,0,0,1,2.68-12.563l2.883.834a83.822,83.822,0,0,0-2.591,12.129Q432.446,273,432.329,274.147Z" transform="translate(-391.469 -91.942)" fill="#fff"/>
            <path id="Tracé_176" data-name="Tracé 176" d="M430.188,318.594l-2.377-1.827a30.568,30.568,0,0,0,3.816-6.428,33.939,33.939,0,0,0,2.039-6.513l2.936.62a36.974,36.974,0,0,1-2.222,7.089A33.544,33.544,0,0,1,430.188,318.594Z" transform="translate(-389.633 -41.747)" fill="#fff"/>
            <path id="Tracé_177" data-name="Tracé 177" d="M448.452,315.182a41.109,41.109,0,0,1-13.664,7.3l-.853-2.877a38.057,38.057,0,0,0,12.639-6.769Z" transform="translate(-414.446 -31.68)" fill="#fff"/>
            <path id="Tracé_178" data-name="Tracé 178" d="M365.045,238.262l1.249-2.729c3.417,1.56,6.795,3.281,10.05,5.116q1.7.962,3.359,1.958l-1.541,2.572q-1.626-.971-3.292-1.918C371.689,241.471,368.385,239.789,365.045,238.262Z" transform="translate(-199.875 -118.012)" fill="#fff"/>
            <path id="Tracé_179" data-name="Tracé 179" d="M376.059,231.757a126.317,126.317,0,0,1,14.493,4.5l-1.058,2.807a123.166,123.166,0,0,0-14.146-4.39Z" transform="translate(-232.533 -122.23)" fill="#fff"/>
            <path id="Tracé_180" data-name="Tracé 180" d="M360.792,247.187c-1.725-1.16-3.474-2.339-5.258-3.516l1.653-2.5c1.791,1.181,3.548,2.364,5.279,3.531,2.443,1.645,4.835,3.253,7.195,4.775l-1.626,2.521C365.658,250.462,363.252,248.842,360.792,247.187Z" transform="translate(-169.7 -111.721)" fill="#fff"/>
            <path id="Tracé_181" data-name="Tracé 181" d="M386.432,230.3a98.8,98.8,0,0,1,15.164,1.281l-.474,2.961a95.509,95.509,0,0,0-14.7-1.24Z" transform="translate(-267.011 -123.861)" fill="#fff"/>
            <path id="Tracé_182" data-name="Tracé 182" d="M428.013,307.685q.051-1.334.049-2.693a102.109,102.109,0,0,0-.783-12.042l2.98-.351a105.292,105.292,0,0,1,.8,12.394q0,1.416-.053,2.809Z" transform="translate(-382.966 -54.285)" fill="#fff"/>
            <path id="Tracé_183" data-name="Tracé 183" d="M328.149,229.6a83.762,83.762,0,0,1,.552,9.227,56.081,56.081,0,0,1-.315,6.071l-2.98-.33a53.2,53.2,0,0,0,.294-5.741,81.522,81.522,0,0,0-.531-8.9Z" transform="translate(-64.466 -124.638)" fill="#fff"/>
            <path id="Tracé_184" data-name="Tracé 184" d="M433.572,293.7q.222,1.226.43,2.453l-2.961.5q-.2-1.21-.421-2.417c-.451-2.506-.936-5-1.422-7.5-.307-1.594-.618-3.19-.919-4.792l2.946-.554q.451,2.391.919,4.773C432.63,288.669,433.119,291.179,433.572,293.7Z" transform="translate(-388.022 -66.815)" fill="#fff"/>
            <path id="Tracé_185" data-name="Tracé 185" d="M334.325,251.856a37.558,37.558,0,0,0,13.865-3.63l1.3,2.705a40.6,40.6,0,0,1-14.98,3.918Z" transform="translate(-104.637 -103.838)" fill="#fff"/>
            <path id="Tracé_186" data-name="Tracé 186" d="M397.76,233.412a83.927,83.927,0,0,1,14.974-2.908l.3,2.985a80.9,80.9,0,0,0-14.436,2.8Z" transform="translate(-302.455 -123.629)" fill="#fff"/>
            <path id="Tracé_187" data-name="Tracé 187" d="M360.187,254.036l-.254,1.327a49.6,49.6,0,0,1-14.388-5.478l1.431-2.637a47.7,47.7,0,0,0,12.643,4.955c.292.064.588.157.878.212Z" transform="translate(-139.393 -104.931)" fill="#fff"/>
            <path id="Tracé_188" data-name="Tracé 188" d="M326.043,218.983l1.467-.3,1.469-.307c.512,2.462,1.033,4.966,1.533,7.468.489,2.449.957,4.9,1.372,7.3l-2.955.51c-.444-2.565-.95-5.186-1.475-7.811-.4-1.986-.811-3.967-1.219-5.929C326.17,219.6,326.109,219.29,326.043,218.983Z" transform="translate(-69.497 -137.179)" fill="#fff"/>
          </g>
          <g id="Groupe_138" data-name="Groupe 138" transform="matrix(0.602, 0.799, -0.799, 0.602, 73.593, 14.972)">
            <g id="Groupe_131" data-name="Groupe 131" transform="translate(0 0)">
              <path id="Tracé_70" data-name="Tracé 70" d="M24.523,0l2.187,3.651L32.6,3.643c.5,2.5,1.02,5.006,1.533,7.468L35.6,10.8l-.957,1.829H12.027Q20.61,40.456,29.19,68.28,26.9,75.722,24.618,83.169L0,3.681l22.45-.025Z" transform="translate(0 0)" fill="#f08926"/>
              <path id="Tracé_71" data-name="Tracé 71" d="M22.615,0q.956,39.756,1.909,79.516-3.68-11.935-7.362-23.868Q8.583,27.824,0,0Z" transform="translate(12.027 12.633)" fill="#fff"/>
              <path id="Tracé_72" data-name="Tracé 72" d="M9.733,0H24.527Q12.264,39.756,0,79.516.994,39.757,1.986,0Z" transform="translate(36.552 12.633)" fill="#fff"/>
              <path id="Tracé_73" data-name="Tracé 73" d="M.957,1.234l1.467-.3C2.358.622,2.3.309,2.233,0L3.895,3.063Q2.9,42.819,1.909,82.579.957,42.82,0,3.063Z" transform="translate(34.643 9.57)" fill="#f4572d"/>
            </g>
            <path id="Tracé_124" data-name="Tracé 124" d="M1.219,5.946C.811,3.984.4,2,0,.017L13.395,0q-1.384,4.506-2.767,9.009H2.881Z" transform="translate(36.004 3.469)" fill="#f08926"/>
          </g>
          <g id="Groupe_139" data-name="Groupe 139" transform="matrix(-0.998, -0.07, 0.07, -0.998, 524.648, 83.406)">
            <g id="Groupe_131-2" data-name="Groupe 131" transform="translate(0 0)">
              <path id="Tracé_70-2" data-name="Tracé 70" d="M15.263,0l1.361,2.273,3.665-.005c.311,1.557.635,3.116.954,4.648l.914-.191-.6,1.138H7.486Q12.827,25.18,18.168,42.5l-2.846,9.267L0,2.291l13.973-.016Z" transform="translate(0 0)" fill="#f08926"/>
              <path id="Tracé_71-2" data-name="Tracé 71" d="M14.076,0q.595,24.744,1.188,49.49-2.29-7.428-4.582-14.856Q5.342,17.317,0,0Z" transform="translate(7.486 7.863)" fill="#fff"/>
              <path id="Tracé_72-2" data-name="Tracé 72" d="M6.058,0h9.208Q7.633,24.744,0,49.49.619,24.744,1.236,0Z" transform="translate(22.75 7.863)" fill="#fff"/>
              <path id="Tracé_73-2" data-name="Tracé 73" d="M.6.768l.913-.19C1.468.387,1.429.192,1.39,0L2.424,1.906Q1.806,26.65,1.188,51.4.6,26.651,0,1.906Z" transform="translate(21.562 5.956)" fill="#f4572d"/>
            </g>
            <path id="Tracé_124-2" data-name="Tracé 124" d="M.759,3.7C.5,2.479.249,1.246,0,.011L8.337,0,6.615,5.607H1.793Z" transform="translate(22.409 2.159)" fill="#f08926"/>
          </g>
        </g>
        <g id="Groupe_133" data-name="Groupe 133" transform="translate(14.886)">
          <path id="Tracé_189" data-name="Tracé 189" d="M556.8,214.969a28.606,28.606,0,0,1,43.038,35.846,33.514,33.514,0,0,1,4.991-.371,33.1,33.1,0,0,1,33.1,33.094c0,18.155-14.957,33.334-33.22,33.1-58.414,0-119.961.005-175.6.005a28.6,28.6,0,1,1,0-57.21h.191a33.1,33.1,0,0,1,56.648-33.6,37.6,37.6,0,0,1,70.847-10.87Z" transform="translate(-400.507 -194.052)" fill="#fff"/>
          <path id="Tracé_190" data-name="Tracé 190" d="M388.651,163.054l-60.233,0a9.812,9.812,0,0,1,0-19.624h.065a11.355,11.355,0,0,1,19.432-11.524,12.9,12.9,0,0,1,24.3-3.73,9.815,9.815,0,0,1,14.765,12.3,11.354,11.354,0,1,1,1.669,22.579Z" transform="translate(130.563 -108.359)" fill="#fff"/>
          <path id="Tracé_191" data-name="Tracé 191" d="M509.557,390.581H343.3a27.084,27.084,0,0,1,0-54.168l.181.005a31.344,31.344,0,0,1,53.637-31.81,35.517,35.517,0,0,1,33.517-30.025c.552-.026,1.1-.077,1.656-.077a35.589,35.589,0,0,1,31.908,19.8,27.091,27.091,0,0,1,40.755,33.945,31.355,31.355,0,0,1,36.066,30.984C541.015,376.43,526.854,390.8,509.557,390.581Z" transform="translate(82.086 57.899)" fill="#fff"/>
          <path id="Tracé_192" data-name="Tracé 192" d="M408.22,393.028l.065,0A11.356,11.356,0,0,1,427.717,381.5a12.9,12.9,0,0,1,24.3-3.729,9.813,9.813,0,0,1,14.763,12.3,11.5,11.5,0,0,1,1.712-.129,11.354,11.354,0,1,1-.041,22.708H408.22a9.812,9.812,0,0,1,0-19.624Z" transform="translate(-98.384 108.533)" fill="#fff"/>
        </g>
      </g>
    </g>
    <g id="Groupe_144" data-name="Groupe 144" transform="matrix(-0.809, -0.588, 0.588, -0.809, 240.72, 714.198)">
      <path id="Tracé_246" data-name="Tracé 246" d="M85.994,0A85.994,85.994,0,0,0,0,85.994C0,133.487,133.487,0,85.994,0Z" transform="translate(0 0)" fill="#cd541f"/>
      <path id="Tracé_244" data-name="Tracé 244" d="M34.608,113.241c2.308-2.03,2.537-4.7,2.165-7.473-.741-5.533-1.552-11.056-2.368-16.579a13.086,13.086,0,0,0-.666-2.458,5.076,5.076,0,0,0-5.269-3.656c-1.83.024-3.661.078-5.487.2a4.262,4.262,0,0,1-4.009-2.046,11.37,11.37,0,0,1-2.035-6.2,70.144,70.144,0,0,1,9.086-36.412,46.037,46.037,0,0,1,4.525-6.5,7.9,7.9,0,0,1,4.264-2.518,3.846,3.846,0,0,1,3.338.571c1.394.981,2.813,1.925,4.212,2.9,2.835,1.97,5.239,1.863,7.765-.544,1.365-1.3,2.566-2.778,3.8-4.207q3.5-4.039,6.959-8.117.888-1.044,1.694-2.157c1.472-2.033,2.455-4.2,1.716-6.795l-1-1.829C62.1,8.175,61,6.838,59.7,5.726A21.976,21.976,0,0,0,39.807.584c-1.493.327-2.925.931-4.384,1.407l-3.16,1.735c-1.169.907-2.376,1.77-3.5,2.727-5.653,4.8-9.689,10.845-13.12,17.328A132.4,132.4,0,0,0,6.016,48.164C2.955,58.458.593,68.89.09,79.665A53.919,53.919,0,0,0,1.815,97.39c.491,1.688,1.146,3.328,1.726,4.989l1.734,3.16c.185.21.39.407.553.634,5.242,7.325,12.446,10.261,21.275,9.363a45.7,45.7,0,0,0,5.675-1.292Z" transform="translate(15.827 15.858)" fill="#fff"/>
      <path id="Tracé_245" data-name="Tracé 245" d="M21.323,28.394l-19.41-11.2c-2.551-1.472-2.551-3.881,0-5.354L21.319.629c2.55-1.473,4.636-.269,4.637,2.677V6.74l20.4,0a7.771,7.771,0,1,1,0,15.541l-20.4,0v3.435C25.96,28.661,23.873,29.866,21.323,28.394Z" transform="translate(55.881 62.769)" fill="#fff"/>
    </g>
    <g id="Groupe_148" data-name="Groupe 148" transform="matrix(-0.985, -0.174, 0.174, -0.985, 283.516, 346.483)">
      <path id="Tracé_247" data-name="Tracé 247" d="M0,11.606c1.074,1.359,2.065,2.841,3.235,4.058Q15.685,28.615,28.2,41.473q9.568,9.86,19.159,19.685c4.237,4.361,8.435,8.781,12.7,13.1a8.574,8.574,0,0,0,12.8-.057c6.452-6.6,12.853-13.282,19.277-19.926.128-.132.275-.234.593-.5.038.63.088,1.074.089,1.517q.009,8.606.008,17.212c0,3.252.816,4.261,3.41,4.263q7.16.006,14.32,0c2.448,0,3.317-1.079,3.319-4.124q.005-19.643-.018-39.285a3.157,3.157,0,0,1,.924-2.453q8.176-8.341,16.308-16.748a19.408,19.408,0,0,0,1.769-2.551V9.766c-1.733-2.636-3.455-5.285-5.2-7.905C126.146-.4,124.794-.6,122.938,1.3c-4.953,5.071-9.869,10.2-14.8,15.3Q101.624,23.323,95.1,30.033,88.386,36.962,81.671,43.9,74.429,51.378,67.2,58.881c-.563.587-.963.6-1.536,0q-6.6-6.9-13.242-13.737-6.59-6.811-13.193-13.6Q32.594,24.7,25.96,17.852,18.554,10.209,11.148,2.564c-.569-.587-1.122-1.206-1.726-1.735C8.035-.386,6.764-.3,5.65,1.3,3.716,4.068,1.878,6.938,0,9.766Z" transform="translate(0 44.687)" fill="#cd541f"/>
      <path id="Tracé_248" data-name="Tracé 248" d="M55.509.111V38.717c-.449.026-.778.061-1.109.061-5.99,0-11.981-.022-17.971.029-.895.008-1.14-.3-1.137-1.452q.048-17.757.02-35.514V0H34.119Q19.9,0,5.69,0C2.033.007.024,2.551.022,7.23Q.007,30.581,0,53.932a3.374,3.374,0,0,0,1.028,2.6C8.035,63.885,15.007,71.29,22,78.668q9.232,9.746,18.477,19.47c1.638,1.727,3.262,3.476,4.937,5.262,2.484-2.619,4.907-5.172,7.329-7.726q10.6-11.189,21.2-22.381,8.135-8.588,16.247-17.21a2.748,2.748,0,0,0,.6-1.645Q90.837,30.5,90.8,6.566C90.79,2.719,88.721.045,85.747.029,75.865-.022,65.983.009,56.1.011A4.866,4.866,0,0,0,55.509.111Z" transform="translate(21.009 0)" fill="#cd541f"/>
    </g>
    <g id="Groupe_145" data-name="Groupe 145" transform="matrix(-0.985, -0.174, 0.174, -0.985, 267.636, 346.428)">
      <path id="Tracé_247-2" data-name="Tracé 247" d="M0,11.606c1.16,1.359,2.231,2.841,3.5,4.058q13.45,12.951,26.969,25.809,10.336,9.86,20.7,19.685c4.577,4.361,9.113,8.781,13.721,13.1A9.768,9.768,0,0,0,78.711,74.2c6.97-6.6,13.885-13.282,20.826-19.926.138-.132.3-.234.641-.5.042.63.1,1.074.1,1.517q.01,8.606.008,17.212c0,3.252.881,4.261,3.684,4.263q7.735.006,15.471,0c2.644,0,3.584-1.079,3.586-4.124Q123.027,53,123,33.357a3.032,3.032,0,0,1,1-2.453q8.833-8.341,17.619-16.748a19.471,19.471,0,0,0,1.911-2.551V9.766c-1.873-2.636-3.733-5.285-5.622-7.905C136.28-.4,134.82-.6,132.814,1.3c-5.351,5.071-10.662,10.2-15.994,15.3q-7.032,6.724-14.075,13.434Q95.487,36.962,88.232,43.9,80.408,51.378,72.6,58.881a1,1,0,0,1-1.66,0q-7.13-6.9-14.305-13.737-7.12-6.811-14.253-13.6Q35.212,24.7,28.046,17.852q-8-7.643-16-15.287c-.615-.587-1.212-1.206-1.865-1.735C8.681-.386,7.308-.3,6.1,1.3,4.015,4.068,2.029,6.938,0,9.766Z" transform="translate(0 52.498)" fill="#fff"/>
      <path id="Tracé_248-2" data-name="Tracé 248" d="M62.033.111V38.717c-.5.026-.87.061-1.239.061-6.694,0-13.389-.022-20.083.029-1,.008-1.274-.3-1.271-1.452.036-11.838.023-23.676.023-35.514V0H38.128Q22.244,0,6.358,0C2.272.007.027,2.551.024,7.23Q.008,30.581,0,53.932a3.2,3.2,0,0,0,1.149,2.6c7.83,7.35,15.622,14.754,23.432,22.132Q34.9,88.413,45.23,98.138c1.831,1.727,3.646,3.476,5.517,5.262,2.777-2.619,5.484-5.172,8.19-7.726q11.849-11.189,23.7-22.381,9.091-8.588,18.156-17.21a2.581,2.581,0,0,0,.67-1.645q.052-23.936.009-47.872C101.46,2.719,99.148.045,95.824.029,84.781-.022,73.737.009,62.693.011A6.02,6.02,0,0,0,62.033.111Z" transform="translate(21.009 0)" fill="#fff"/>
    </g>
    <g id="Groupe_209" data-name="Groupe 209" transform="translate(447.727 125.308) rotate(137)">
      <path id="Tracé_35-2" data-name="Tracé 35" d="M45.593,0l4.07,6.789,10.946-.016c.929,4.652,1.9,9.308,2.85,13.886l2.732-.571-1.775,3.4H22.364Q38.316,75.225,54.276,126.956q-4.251,13.845-8.505,27.689Q22.887,80.741,0,6.845l41.74-.051Z" fill="#f08926"/>
      <path id="Tracé_36-2" data-name="Tracé 36" d="M42.051,0q1.771,73.922,3.55,147.848-6.843-22.187-13.689-44.381Q15.954,51.731,0,0Z" transform="translate(22.364 23.489)" fill="#fff"/>
      <path id="Tracé_37-2" data-name="Tracé 37" d="M18.093,0H45.6Q22.8,73.922,0,147.848,1.842,73.926,3.688,0Z" transform="translate(67.965 23.489)" fill="#fff"/>
      <path id="Tracé_38-2" data-name="Tracé 38" d="M1.775,2.295,4.5,1.728C4.384,1.157,4.266.571,4.148,0l3.09,5.7Q5.4,79.617,3.55,153.543,1.773,79.621,0,5.7Z" transform="translate(64.415 17.794)" fill="#f4572d"/>
    </g>
  </g>
</svg>
