<svg xmlns="http://www.w3.org/2000/svg" xmlns:xlink="http://www.w3.org/1999/xlink" width="282.055" height="290.211" viewBox="0 0 282.055 290.211">
  <defs>
    <clipPath id="clip-path">
      <ellipse id="Ellipse_22" data-name="Ellipse 22" cx="82.864" cy="83.676" rx="82.864" ry="83.676" fill="#262626"/>
    </clipPath>
  </defs>
  <g id="Groupe_274" data-name="Groupe 274" transform="translate(-1423.693 -2201)">
    <g id="Groupe_270" data-name="Groupe 270" transform="translate(37)">
      <g id="Groupe_269" data-name="Groupe 269" transform="translate(-320.496)">
        <g id="Groupe_267" data-name="Groupe 267" transform="translate(-320.496)">
          <g id="Tracé_352" data-name="Tracé 352" transform="translate(2027.686 2209.156)" fill="#ffc75d">
            <path d="M 141.0274353027344 279.5548706054688 C 131.6268920898438 279.5548706054688 122.2329711914062 278.6079406738281 113.1066665649414 276.7404479980469 C 104.2135925292969 274.9206237792969 95.46604919433594 272.2052917480469 87.10708618164062 268.6697082519531 C 78.89928436279297 265.1981201171875 70.98270416259766 260.9010925292969 63.57716751098633 255.8980560302734 C 56.24135971069336 250.9420471191406 49.34301376342773 245.2503967285156 43.0737419128418 238.9811248779297 C 36.80447387695312 232.7118530273438 31.11281967163086 225.8135070800781 26.15682029724121 218.4777069091797 C 21.15378189086914 211.0721588134766 16.85674285888672 203.1555938720703 13.38516616821289 194.9477844238281 C 9.849589347839355 186.5888214111328 7.134243011474609 177.8412780761719 5.314435482025146 168.9482116699219 C 3.446935415267944 159.8218994140625 2.500012159347534 150.427978515625 2.500012159347534 141.0274353027344 C 2.500012159347534 131.6268920898438 3.446935415267944 122.2329711914062 5.314435482025146 113.1066665649414 C 7.134243011474609 104.2135925292969 9.849589347839355 95.46604919433594 13.38516616821289 87.10708618164062 C 16.85674285888672 78.89928436279297 21.15378189086914 70.98270416259766 26.15682029724121 63.57716751098633 C 31.11281967163086 56.24135971069336 36.80447387695312 49.34301376342773 43.0737419128418 43.0737419128418 C 49.34301376342773 36.80447387695312 56.24135971069336 31.11281967163086 63.57716751098633 26.15682029724121 C 70.98270416259766 21.15378189086914 78.89928436279297 16.85674285888672 87.10708618164062 13.38516616821289 C 95.46604919433594 9.849589347839355 104.2135925292969 7.134243011474609 113.1066665649414 5.314435482025146 C 122.2329711914062 3.446935415267944 131.6268920898438 2.500012159347534 141.0274353027344 2.500012159347534 C 150.427978515625 2.500012159347534 159.8218994140625 3.446935415267944 168.9482116699219 5.314435482025146 C 177.8412780761719 7.134243011474609 186.5888214111328 9.849589347839355 194.9477844238281 13.38516616821289 C 203.1555938720703 16.85674285888672 211.0721588134766 21.15378189086914 218.4777069091797 26.15682029724121 C 225.8135070800781 31.11281967163086 232.7118530273438 36.80447387695312 238.9811248779297 43.0737419128418 C 245.2503967285156 49.34301376342773 250.9420471191406 56.24135971069336 255.8980560302734 63.57716751098633 C 260.9010925292969 70.98270416259766 265.1981201171875 78.89928436279297 268.6697082519531 87.10708618164062 C 272.2052917480469 95.46604919433594 274.9206237792969 104.2135925292969 276.7404479980469 113.1066665649414 C 278.6079406738281 122.2329711914062 279.5548706054688 131.6268920898438 279.5548706054688 141.0274353027344 C 279.5548706054688 150.427978515625 278.6079406738281 159.8218994140625 276.7404479980469 168.9482116699219 C 274.9206237792969 177.8412780761719 272.2052917480469 186.5888214111328 268.6697082519531 194.9477844238281 C 265.1981201171875 203.1555938720703 260.9010925292969 211.0721588134766 255.8980560302734 218.4777069091797 C 250.9420471191406 225.8135070800781 245.2503967285156 232.7118530273438 238.9811248779297 238.9811248779297 C 232.7118530273438 245.2503967285156 225.8135070800781 250.9420471191406 218.4777069091797 255.8980560302734 C 211.0721588134766 260.9010925292969 203.1555938720703 265.1981201171875 194.9477844238281 268.6697082519531 C 186.5888214111328 272.2052917480469 177.8412780761719 274.9206237792969 168.9482116699219 276.7404479980469 C 159.8218994140625 278.6079406738281 150.427978515625 279.5548706054688 141.0274353027344 279.5548706054688 Z" stroke="none"/>
            <path d="M 141.0274353027344 4.999969482421875 C 131.7948913574219 4.999969482421875 122.5695953369141 5.9298095703125 113.6078491210938 7.763641357421875 C 104.8764343261719 9.55035400390625 96.28793334960938 12.21640014648438 88.0809326171875 15.68765258789062 C 80.0218505859375 19.09634399414062 72.24842834472656 23.315673828125 64.9766845703125 28.2283935546875 C 57.77272033691406 33.09527587890625 50.99827575683594 38.68472290039062 44.84152221679688 44.84152221679688 C 38.68472290039062 50.99827575683594 33.09527587890625 57.77272033691406 28.2283935546875 64.9766845703125 C 23.315673828125 72.24842834472656 19.09634399414062 80.0218505859375 15.68765258789062 88.0809326171875 C 12.21640014648438 96.28793334960938 9.55035400390625 104.8764343261719 7.763641357421875 113.6078491210938 C 5.9298095703125 122.5695953369141 4.999969482421875 131.7948913574219 4.999969482421875 141.0274353027344 C 4.999969482421875 150.2599792480469 5.9298095703125 159.4852600097656 7.763641357421875 168.447021484375 C 9.55035400390625 177.1784362792969 12.21640014648438 185.7669372558594 15.68765258789062 193.9738922119141 C 19.09634399414062 202.0330200195312 23.315673828125 209.806396484375 28.2283935546875 217.0781860351562 C 33.09527587890625 224.2821350097656 38.68472290039062 231.0566101074219 44.84152221679688 237.2133483886719 C 50.99827575683594 243.3701019287109 57.77272033691406 248.9595642089844 64.9766845703125 253.8264770507812 C 72.24842834472656 258.7391967773438 80.0218505859375 262.9584655761719 88.0809326171875 266.3671875 C 96.28793334960938 269.8384704589844 104.8764343261719 272.5044860839844 113.6078491210938 274.2911987304688 C 122.5695953369141 276.1250305175781 131.7948913574219 277.0548400878906 141.0274353027344 277.0548400878906 C 150.2599792480469 277.0548400878906 159.4852600097656 276.1250305175781 168.447021484375 274.2911987304688 C 177.1784362792969 272.5044860839844 185.7669372558594 269.8384704589844 193.9738922119141 266.3671875 C 202.0330200195312 262.9584655761719 209.806396484375 258.7391967773438 217.0781860351562 253.8264770507812 C 224.2821350097656 248.9595642089844 231.0566101074219 243.3701019287109 237.2133483886719 237.2133483886719 C 243.3701019287109 231.0566101074219 248.9595642089844 224.2821350097656 253.8264770507812 217.0781860351562 C 258.7391967773438 209.806396484375 262.9584655761719 202.0330200195312 266.3671875 193.9738922119141 C 269.8384704589844 185.7669372558594 272.5044860839844 177.1784362792969 274.2911987304688 168.447021484375 C 276.1250305175781 159.4852600097656 277.0548400878906 150.2599792480469 277.0548400878906 141.0274353027344 C 277.0548400878906 131.7948913574219 276.1250305175781 122.5695953369141 274.2911987304688 113.6078491210938 C 272.5044860839844 104.8764343261719 269.8384704589844 96.28793334960938 266.3671875 88.0809326171875 C 262.9584655761719 80.0218505859375 258.7391967773438 72.24842834472656 253.8264770507812 64.9766845703125 C 248.9595642089844 57.77272033691406 243.3701019287109 50.99827575683594 237.2133483886719 44.84152221679688 C 231.0566101074219 38.68472290039062 224.2821350097656 33.09527587890625 217.0781860351562 28.2283935546875 C 209.806396484375 23.315673828125 202.0330200195312 19.09634399414062 193.9738922119141 15.68765258789062 C 185.7669372558594 12.21640014648438 177.1784362792969 9.55035400390625 168.447021484375 7.763641357421875 C 159.4852600097656 5.9298095703125 150.2599792480469 4.999969482421875 141.0274353027344 4.999969482421875 M 141.0274353027344 -3.0517578125e-05 C 218.9147338867188 -3.0517578125e-05 282.0548400878906 63.14013671875 282.0548400878906 141.0274353027344 C 282.0548400878906 218.9147338867188 218.9147338867188 282.0548400878906 141.0274353027344 282.0548400878906 C 63.14013671875 282.0548400878906 -3.0517578125e-05 218.9147338867188 -3.0517578125e-05 141.0274353027344 C -3.0517578125e-05 63.14013671875 63.14013671875 -3.0517578125e-05 141.0274353027344 -3.0517578125e-05 Z" stroke="none" fill="#fff"/>
          </g>
        </g>
      </g>
      <g id="Groupe_de_masques_22" data-name="Groupe de masques 22" transform="translate(1419.545 2263.083) rotate(-22)" clip-path="url(#clip-path)">
        <g id="vote" transform="translate(27.779 32.927)">
          <path id="Tracé_355" data-name="Tracé 355" d="M109.248,32.7a4.215,4.215,0,0,0-2.265-2.3L35.427.324a4.165,4.165,0,0,0-5.468,2.3L.319,75.231a4.3,4.3,0,0,0,0,3.25,4.215,4.215,0,0,0,2.265,2.3l48.05,20.2a4.128,4.128,0,0,0,3.2,0L87.078,87a4.215,4.215,0,0,0,2.265-2.3l19.9-48.758A4.3,4.3,0,0,0,109.248,32.7ZM59.97,89.2l4.267-10.455,10.3,4.33ZM83.212,77.53,63.574,69.277a4.166,4.166,0,0,0-5.468,2.3L49.971,91.5,9.653,74.558,36.09,9.8,99.913,36.62Z" transform="translate(0 0)" fill="#262626"/>
          <path id="Tracé_356" data-name="Tracé 356" d="M36.007,7.847,32.8,0,11.372,9.01,7.733.1,0,3.348,6.842,20.108Z" transform="translate(38.423 42.732)" fill="#262626"/>
        </g>
      </g>
    </g>
    <text id="Kazba_est_un_service" data-name="Kazba est un service" transform="translate(1564.721 2391.76)" fill="#262626" font-size="17" font-family="LucidaGrande, Lucida Grande"><tspan x="-83.049" y="0">Kazba</tspan><tspan y="0" font-family="DamascusLight, Damascus"> </tspan><tspan y="0">est</tspan><tspan y="0" font-family="DamascusLight, Damascus"> </tspan><tspan y="0">un</tspan><tspan y="0" font-family="DamascusLight, Damascus"> </tspan><tspan y="0">service</tspan></text>
    <text id="sans_engagement" data-name="sans engagement" transform="translate(1489.721 2433.359)" fill="#262626" font-size="26" font-family="BebasNeue-Regular, Bebas Neue"><tspan x="0" y="0">sans engagement</tspan></text>
  </g>
</svg>
