<svg xmlns="http://www.w3.org/2000/svg" xmlns:xlink="http://www.w3.org/1999/xlink" width="282.055" height="282.055" viewBox="0 0 282.055 282.055">
  <defs>
    <clipPath id="clip-path">
      <circle id="Ellipse_23" data-name="Ellipse 23" cx="63.035" cy="63.035" r="63.035" transform="translate(0 0)" fill="#262626"/>
    </clipPath>
  </defs>
  <g id="Groupe_272" data-name="Groupe 272" transform="translate(-2027.686 -2209.156)">
    <g id="Groupe_256" data-name="Groupe 256">
      <g id="Tracé_352" data-name="Tracé 352" transform="translate(2027.686 2209.156)" fill="#ffc75d">
        <path d="M 141.0274353027344 279.5548706054688 C 131.6268920898438 279.5548706054688 122.2329711914062 278.6079406738281 113.1066665649414 276.7404479980469 C 104.2135925292969 274.9206237792969 95.46604919433594 272.2052917480469 87.10708618164062 268.6697082519531 C 78.89928436279297 265.1981201171875 70.98270416259766 260.9010925292969 63.57716751098633 255.8980560302734 C 56.24135971069336 250.9420471191406 49.34301376342773 245.2503967285156 43.0737419128418 238.9811248779297 C 36.80447387695312 232.7118530273438 31.11281967163086 225.8135070800781 26.15682029724121 218.4777069091797 C 21.15378189086914 211.0721588134766 16.85674285888672 203.1555938720703 13.38516616821289 194.9477844238281 C 9.849589347839355 186.5888214111328 7.134243011474609 177.8412780761719 5.314435482025146 168.9482116699219 C 3.446935415267944 159.8218994140625 2.500012159347534 150.427978515625 2.500012159347534 141.0274353027344 C 2.500012159347534 131.6268920898438 3.446935415267944 122.2329711914062 5.314435482025146 113.1066665649414 C 7.134243011474609 104.2135925292969 9.849589347839355 95.46604919433594 13.38516616821289 87.10708618164062 C 16.85674285888672 78.89928436279297 21.15378189086914 70.98270416259766 26.15682029724121 63.57716751098633 C 31.11281967163086 56.24135971069336 36.80447387695312 49.34301376342773 43.0737419128418 43.0737419128418 C 49.34301376342773 36.80447387695312 56.24135971069336 31.11281967163086 63.57716751098633 26.15682029724121 C 70.98270416259766 21.15378189086914 78.89928436279297 16.85674285888672 87.10708618164062 13.38516616821289 C 95.46604919433594 9.849589347839355 104.2135925292969 7.134243011474609 113.1066665649414 5.314435482025146 C 122.2329711914062 3.446935415267944 131.6268920898438 2.500012159347534 141.0274353027344 2.500012159347534 C 150.427978515625 2.500012159347534 159.8218994140625 3.446935415267944 168.9482116699219 5.314435482025146 C 177.8412780761719 7.134243011474609 186.5888214111328 9.849589347839355 194.9477844238281 13.38516616821289 C 203.1555938720703 16.85674285888672 211.0721588134766 21.15378189086914 218.4777069091797 26.15682029724121 C 225.8135070800781 31.11281967163086 232.7118530273438 36.80447387695312 238.9811248779297 43.0737419128418 C 245.2503967285156 49.34301376342773 250.9420471191406 56.24135971069336 255.8980560302734 63.57716751098633 C 260.9010925292969 70.98270416259766 265.1981201171875 78.89928436279297 268.6697082519531 87.10708618164062 C 272.2052917480469 95.46604919433594 274.9206237792969 104.2135925292969 276.7404479980469 113.1066665649414 C 278.6079406738281 122.2329711914062 279.5548706054688 131.6268920898438 279.5548706054688 141.0274353027344 C 279.5548706054688 150.427978515625 278.6079406738281 159.8218994140625 276.7404479980469 168.9482116699219 C 274.9206237792969 177.8412780761719 272.2052917480469 186.5888214111328 268.6697082519531 194.9477844238281 C 265.1981201171875 203.1555938720703 260.9010925292969 211.0721588134766 255.8980560302734 218.4777069091797 C 250.9420471191406 225.8135070800781 245.2503967285156 232.7118530273438 238.9811248779297 238.9811248779297 C 232.7118530273438 245.2503967285156 225.8135070800781 250.9420471191406 218.4777069091797 255.8980560302734 C 211.0721588134766 260.9010925292969 203.1555938720703 265.1981201171875 194.9477844238281 268.6697082519531 C 186.5888214111328 272.2052917480469 177.8412780761719 274.9206237792969 168.9482116699219 276.7404479980469 C 159.8218994140625 278.6079406738281 150.427978515625 279.5548706054688 141.0274353027344 279.5548706054688 Z" stroke="none"/>
        <path d="M 141.0274353027344 4.999969482421875 C 131.7948913574219 4.999969482421875 122.5695953369141 5.9298095703125 113.6078491210938 7.763641357421875 C 104.8764343261719 9.55035400390625 96.28793334960938 12.21640014648438 88.0809326171875 15.68765258789062 C 80.0218505859375 19.09634399414062 72.24842834472656 23.315673828125 64.9766845703125 28.2283935546875 C 57.77272033691406 33.09527587890625 50.99827575683594 38.68472290039062 44.84152221679688 44.84152221679688 C 38.68472290039062 50.99827575683594 33.09527587890625 57.77272033691406 28.2283935546875 64.9766845703125 C 23.315673828125 72.24842834472656 19.09634399414062 80.0218505859375 15.68765258789062 88.0809326171875 C 12.21640014648438 96.28793334960938 9.55035400390625 104.8764343261719 7.763641357421875 113.6078491210938 C 5.9298095703125 122.5695953369141 4.999969482421875 131.7948913574219 4.999969482421875 141.0274353027344 C 4.999969482421875 150.2599792480469 5.9298095703125 159.4852600097656 7.763641357421875 168.447021484375 C 9.55035400390625 177.1784362792969 12.21640014648438 185.7669372558594 15.68765258789062 193.9738922119141 C 19.09634399414062 202.0330200195312 23.315673828125 209.806396484375 28.2283935546875 217.0781860351562 C 33.09527587890625 224.2821350097656 38.68472290039062 231.0566101074219 44.84152221679688 237.2133483886719 C 50.99827575683594 243.3701019287109 57.77272033691406 248.9595642089844 64.9766845703125 253.8264770507812 C 72.24842834472656 258.7391967773438 80.0218505859375 262.9584655761719 88.0809326171875 266.3671875 C 96.28793334960938 269.8384704589844 104.8764343261719 272.5044860839844 113.6078491210938 274.2911987304688 C 122.5695953369141 276.1250305175781 131.7948913574219 277.0548400878906 141.0274353027344 277.0548400878906 C 150.2599792480469 277.0548400878906 159.4852600097656 276.1250305175781 168.447021484375 274.2911987304688 C 177.1784362792969 272.5044860839844 185.7669372558594 269.8384704589844 193.9738922119141 266.3671875 C 202.0330200195312 262.9584655761719 209.806396484375 258.7391967773438 217.0781860351562 253.8264770507812 C 224.2821350097656 248.9595642089844 231.0566101074219 243.3701019287109 237.2133483886719 237.2133483886719 C 243.3701019287109 231.0566101074219 248.9595642089844 224.2821350097656 253.8264770507812 217.0781860351562 C 258.7391967773438 209.806396484375 262.9584655761719 202.0330200195312 266.3671875 193.9738922119141 C 269.8384704589844 185.7669372558594 272.5044860839844 177.1784362792969 274.2911987304688 168.447021484375 C 276.1250305175781 159.4852600097656 277.0548400878906 150.2599792480469 277.0548400878906 141.0274353027344 C 277.0548400878906 131.7948913574219 276.1250305175781 122.5695953369141 274.2911987304688 113.6078491210938 C 272.5044860839844 104.8764343261719 269.8384704589844 96.28793334960938 266.3671875 88.0809326171875 C 262.9584655761719 80.0218505859375 258.7391967773438 72.24842834472656 253.8264770507812 64.9766845703125 C 248.9595642089844 57.77272033691406 243.3701019287109 50.99827575683594 237.2133483886719 44.84152221679688 C 231.0566101074219 38.68472290039062 224.2821350097656 33.09527587890625 217.0781860351562 28.2283935546875 C 209.806396484375 23.315673828125 202.0330200195312 19.09634399414062 193.9738922119141 15.68765258789062 C 185.7669372558594 12.21640014648438 177.1784362792969 9.55035400390625 168.447021484375 7.763641357421875 C 159.4852600097656 5.9298095703125 150.2599792480469 4.999969482421875 141.0274353027344 4.999969482421875 M 141.0274353027344 -3.0517578125e-05 C 218.9147338867188 -3.0517578125e-05 282.0548400878906 63.14013671875 282.0548400878906 141.0274353027344 C 282.0548400878906 218.9147338867188 218.9147338867188 282.0548400878906 141.0274353027344 282.0548400878906 C 63.14013671875 282.0548400878906 -3.0517578125e-05 218.9147338867188 -3.0517578125e-05 141.0274353027344 C -3.0517578125e-05 63.14013671875 63.14013671875 -3.0517578125e-05 141.0274353027344 -3.0517578125e-05 Z" stroke="none" fill="#fff"/>
      </g>
    </g>
    <g id="Groupe_271" data-name="Groupe 271" transform="translate(10 10)">
      <g id="Groupe_de_masques_24" data-name="Groupe de masques 24" transform="translate(2096.518 2226.689)" clip-path="url(#clip-path)">
        <path id="savings" d="M96.479,44.787H89.156A33.206,33.206,0,0,0,75.428,29.273L75.4,18.037a3.224,3.224,0,0,0-4.776-2.817l-8.485,4.663a20.957,20.957,0,1,0-41.223,7.2A33.34,33.34,0,0,0,13.9,85.106V95.585a3.224,3.224,0,0,0,3.224,3.224H33.339a3.224,3.224,0,0,0,3.224-3.222l0-4.219H55.313l-.015,4.2a3.224,3.224,0,0,0,3.224,3.236H73.778A3.224,3.224,0,0,0,77,95.585V85.795A33.332,33.332,0,0,0,90.7,66.85h5.776A3.224,3.224,0,0,0,99.7,63.626V48.011A3.224,3.224,0,0,0,96.479,44.787ZM41.327,7.827a14.5,14.5,0,0,1,14.3,16.938c-.007.033-.012.066-.018.1A14.511,14.511,0,1,1,41.327,7.827ZM93.255,60.4H88.14a3.224,3.224,0,0,0-3.168,2.629,26.884,26.884,0,0,1-12.826,18.2,3.224,3.224,0,0,0-1.59,2.779v8.351h-8.8l.016-4.2a3.224,3.224,0,0,0-3.224-3.235H33.344a3.224,3.224,0,0,0-3.224,3.222l0,4.219H20.345V83.4a3.223,3.223,0,0,0-1.484-2.714,26.9,26.9,0,0,1,4.466-47.623,21.093,21.093,0,0,0,2.9,3.788H23.59a3.224,3.224,0,1,0,0,6.448H59.062a3.224,3.224,0,1,0,0-6.448H56.428a20.946,20.946,0,0,0,5.209-9.334l7.328-4.028.02,7.7a3.224,3.224,0,0,0,1.759,2.864A26.824,26.824,0,0,1,83.918,49.082a3.224,3.224,0,0,0,3.04,2.152h6.3V60.4Z" transform="translate(15.021 9.416)" fill="#262626"/>
      </g>
      <text id="Gratuitement" transform="translate(2096.518 2420.76)" fill="#262626" font-size="26" font-family="BebasNeue-Regular, Bebas Neue"><tspan x="0" y="0">Gratuitement</tspan></text>
      <text id="votre_projet_est_soumis" data-name="votre projet est soumis" transform="translate(2159.553 2379.76)" fill="#262626" font-size="17" font-family="LucidaGrande, Lucida Grande"><tspan x="-93.965" y="0">votre</tspan><tspan y="0" font-family="DamascusLight, Damascus"> </tspan><tspan y="0">projet</tspan><tspan y="0" font-family="DamascusLight, Damascus"> </tspan><tspan y="0">est</tspan><tspan y="0" font-family="DamascusLight, Damascus"> </tspan><tspan y="0">soumis</tspan></text>
    </g>
  </g>
</svg>
