<svg xmlns="http://www.w3.org/2000/svg" xmlns:xlink="http://www.w3.org/1999/xlink" width="86.702" height="84.991" viewBox="0 0 86.702 84.991">
  <defs>
    <clipPath id="clip-path">
      <path id="Ellipse_7" data-name="Ellipse 7" d="M43.334,1.145C67.267,1.778,87.2,21.309,87.856,44.77S69.642,86.737,45.709,86.1,1.843,65.941,1.188,42.48,19.4.513,43.334,1.145Z" transform="translate(0)" fill="#fff"/>
    </clipPath>
  </defs>
  <g id="Groupe_de_masques_1" data-name="Groupe de masques 1" transform="translate(-1.171 -1.129)" clip-path="url(#clip-path)">
    <g id="vote" transform="translate(7.566 11.144)">
      <path id="Tracé_315" data-name="Tracé 315" d="M72.508,22.251a2.918,2.918,0,0,0-1.532-1.471L23.327.814A2.894,2.894,0,0,0,21.212.763,2.47,2.47,0,0,0,19.77,2.15L1.519,46.833a2.546,2.546,0,0,0,.057,2.023A2.917,2.917,0,0,0,3.1,50.327L35.1,63.735a2.869,2.869,0,0,0,2.109.056l21.648-8.12A2.5,2.5,0,0,0,60.3,54.28l12.26-30.005a2.546,2.546,0,0,0-.057-2.023ZM41.041,56.569l2.628-6.434,6.86,2.875Zm15.1-6.863-13.075-5.48a2.894,2.894,0,0,0-2.117-.052A2.47,2.47,0,0,0,39.5,45.563L34.5,57.826,7.65,46.576,23.933,6.722l42.5,17.809Z" transform="translate(0 0)" fill="#fff"/>
      <path id="Tracé_316" data-name="Tracé 316" d="M23.848,5.511,21.6.571,7.646,5.806,5.094.194.058,2.082l4.8,10.553Z" transform="translate(26.042 27.265)" fill="#fff"/>
    </g>
  </g>
</svg>
