<svg xmlns="http://www.w3.org/2000/svg" xmlns:xlink="http://www.w3.org/1999/xlink" width="159.472" height="90.039" viewBox="0 0 159.472 90.039">
  <defs>
    <filter id="Tracé_210" x="0" y="0" width="159.472" height="90.039" filterUnits="userSpaceOnUse">
      <feOffset dy="3" input="SourceAlpha"/>
      <feGaussianBlur stdDeviation="3" result="blur"/>
      <feFlood flood-opacity="0.161"/>
      <feComposite operator="in" in2="blur"/>
      <feComposite in="SourceGraphic"/>
    </filter>
  </defs>
  <g transform="matrix(1, 0, 0, 1, 0, 0)" filter="url(#Tracé_210)">
    <path id="Tracé_210-2" data-name="Tracé 210" d="M338.4,193.038c34.806,0,71.48,0,104.63,0a16.81,16.81,0,1,0,0-33.617h-.114a19.149,19.149,0,0,0,1.818-8.164,19.781,19.781,0,0,0-35.573-11.577,22.494,22.494,0,0,0-42.215-6.39,17.141,17.141,0,0,0-10.6-3.643,16.926,16.926,0,0,0-17.045,16.808,16.54,16.54,0,0,0,2,7.9,20.172,20.172,0,0,0-2.971-.221,19.452,19.452,0,1,0,.071,38.9Z" transform="translate(-309.61 -115)" fill="#fcb65d"/>
  </g>
</svg>
