<svg xmlns="http://www.w3.org/2000/svg" width="167.128" height="410.956" viewBox="0 0 167.128 410.956">
  <g id="Groupe_253" data-name="Groupe 253" transform="translate(-491.093 -578.544)">
    <g id="Groupe_164" data-name="Groupe 164" transform="translate(-1769.592 -218.896)">
      <path id="Tracé_173" data-name="Tracé 173" d="M3.12,35.223A225.675,225.675,0,0,0,0,1.018L7.464,0a233.45,233.45,0,0,1,3.205,35.164Z" transform="translate(2282.114 1035.327) rotate(-159)" fill="#eea250"/>
      <path id="Tracé_175" data-name="Tracé 175" d="M7.1,36.315,0,35.575Q.295,32.75.68,29.88c.733-5.464,1.725-11.01,3.149-17.409C4.627,8.874,5.765,4.435,7.054,0l6.857,1.984A199.339,199.339,0,0,0,7.748,30.832Q7.379,33.589,7.1,36.315Z" transform="matrix(0.978, 0.208, -0.208, 0.978, 2296.449, 953.579)" fill="#eea250"/>
      <path id="Tracé_176" data-name="Tracé 176" d="M443.066,338.953l5.654-4.345a72.717,72.717,0,0,1-9.077-15.29,80.744,80.744,0,0,1-4.849-15.492l-6.983,1.475a87.937,87.937,0,0,0,5.286,16.861A79.779,79.779,0,0,0,443.066,338.953Z" transform="translate(1837.376 840.637)" fill="#eea250"/>
      <path id="Tracé_177" data-name="Tracé 177" d="M433.935,318.409a97.784,97.784,0,0,0,32.5,17.375l2.029-6.842a90.516,90.516,0,0,1-30.062-16.1Z" transform="translate(1852.161 872.613)" fill="#eea250"/>
      <path id="Tracé_182" data-name="Tracé 182" d="M434.533,328.481q-.121-3.172-.116-6.4a242.842,242.842,0,0,1,1.863-28.642l-7.089-.836a250.477,250.477,0,0,0-1.913,29.478q0,3.368.126,6.681Z" transform="translate(1833.408 804.693)" fill="#eea250"/>
      <path id="Tracé_184" data-name="Tracé 184" d="M429.3,310.681q-.529,2.915-1.022,5.835l7.043,1.178q.476-2.878,1-5.749c1.072-5.961,2.225-11.9,3.383-17.848.73-3.791,1.47-7.587,2.185-11.4l-7.008-1.319q-1.073,5.686-2.185,11.353C431.54,298.718,430.377,304.689,429.3,310.681Z" transform="translate(1834.211 766.655)" fill="#eea250"/>
    </g>
    <g id="Groupe_163" data-name="Groupe 163" transform="translate(655.655 579.241) rotate(89)">
      <path id="Tracé_58" data-name="Tracé 58" d="M462.762,463.631h0q12.381-17.722,24.762-35.439Q411.547,403.8,335.565,379.4L433.641,505.31q12.423-17.782,24.843-35.557l7.7.991q-2.7-2.527-5.375-5.006Z" transform="translate(-334.543 -362.955)" fill="#cd541f"/>
      <g id="Groupe_127" data-name="Groupe 127" transform="translate(-0.698 0.073)">
        <path id="Tracé_59" data-name="Tracé 59" d="M458.483,465.676q-61.459-45.169-122.918-90.35,49.036,62.957,98.076,125.91Q446.064,483.454,458.483,465.676Z" transform="translate(-335.565 -375.326)" fill="#eea351"/>
        <path id="Tracé_60" data-name="Tracé 60" d="M487.524,424.114q-75.977-24.4-151.959-48.788,63.6,42.118,127.2,84.227Q475.143,441.838,487.524,424.114Z" transform="translate(-335.565 -375.326)" fill="#eea250"/>
        <path id="Tracé_61" data-name="Tracé 61" d="M466.185,466.67q-2.7-2.527-5.375-5.006l1.953-2.107v0q-63.6-42.111-127.2-84.227,61.459,45.181,122.918,90.35Z" transform="translate(-335.565 -375.326)" fill="#f4572d"/>
      </g>
    </g>
  </g>
</svg>
