<svg xmlns="http://www.w3.org/2000/svg" width="111.926" height="81.804" viewBox="0 0 111.926 81.804">
  <g id="play" transform="translate(104.926 7) rotate(90)">
    <g id="Groupe_198" data-name="Groupe 198">
      <g id="Tracé_328" data-name="Tracé 328" fill="#ef6760">
        <path d="M 6.057865619659424 101.4255981445312 C 3.066680908203125 101.4255981445312 0.474188506603241 100.0742416381836 -1.242073059082031 97.62046051025391 C -2.74031925201416 95.47835540771484 -3.499996185302734 92.64868927001953 -3.499996185302734 89.21006011962891 L -3.499996185302734 8.728229522705078 C -3.499996185302734 5.285906791687012 -2.739411592483521 2.453245162963867 -1.239365339279175 0.308906763792038 C 0.4788346588611603 -2.147308588027954 3.074527025222778 -3.500000953674316 6.069557666778564 -3.500000953674316 C 8.820757865905762 -3.500000953674316 11.82109642028809 -2.351139307022095 14.74621963500977 -0.1776316910982132 L 64.8948974609375 37.05952072143555 C 66.90786743164062 38.55376815795898 68.48628234863281 40.32699966430664 69.58589935302734 42.32964706420898 C 70.72661590576172 44.40719985961914 71.30477142333984 46.63769149780273 71.30429840087891 48.95915222167969 C 71.30429840087891 51.28032302856445 70.72138977050781 53.51370620727539 69.57175445556641 55.5965690612793 C 68.46934509277344 57.59387588500977 66.89044952392578 59.36479949951172 64.87891387939453 60.86016845703125 L 14.70368099212646 98.09886169433594 C 11.77718830108643 100.2746276855469 8.786696434020996 101.4255981445312 6.057865619659424 101.4255981445312 Z" stroke="none"/>
        <path d="M 6.069553375244141 0 C 2.319648742675781 0 -7.62939453125e-06 3.264259338378906 -7.62939453125e-06 8.728218078613281 L -7.62939453125e-06 89.21006011962891 C -7.62939453125e-06 94.66765594482422 2.316734313964844 97.92559814453125 6.057849884033203 97.92559814453125 C 8.000411987304688 97.92559814453125 10.29667282104492 97.01402282714844 12.61779022216797 95.28833770751953 L 62.79079055786133 58.05130004882812 C 66.01741027832031 55.65263748168945 67.80429077148438 52.42483901977539 67.80429077148438 48.95843887329102 C 67.80503082275391 45.49441909790039 66.03861236572266 42.26741790771484 62.80833053588867 39.86953735351562 L 12.65873336791992 2.631698608398438 C 10.34271240234375 0.9107818603515625 8.009170532226562 0 6.069553375244141 0 M 6.069553375244141 -7 C 9.578330993652344 -7 13.30051040649414 -5.612319946289062 16.83369064331055 -2.986984252929688 L 66.98143005371094 34.24945831298828 C 71.95388793945312 37.94057846069336 74.80548858642578 43.30255889892578 74.80429077148438 48.95993804931641 C 74.80429077148438 54.60459899902344 71.94770812988281 59.9664192199707 66.96701049804688 63.66905975341797 L 16.78956985473633 100.9093780517578 C 13.2571907043457 103.5356216430664 9.544589996337891 104.9255981445312 6.057849884033203 104.9255981445312 C -0.4417495727539062 104.9255981445312 -7.000007629394531 100.0662155151367 -7.000007629394531 89.21006011962891 L -7.000007629394531 8.728218078613281 C -7.000007629394531 -2.136703491210938 -0.4358673095703125 -7 6.069553375244141 -7 Z" stroke="none" fill="#f8f8f8"/>
      </g>
    </g>
  </g>
</svg>
