<svg xmlns="http://www.w3.org/2000/svg" xmlns:xlink="http://www.w3.org/1999/xlink" width="79" height="78" viewBox="0 0 79 78">
  <defs>
    <clipPath id="clip-path">
      <ellipse id="Ellipse_10" data-name="Ellipse 10" cx="39.5" cy="39" rx="39.5" ry="39" transform="translate(952 1744.5)" fill="#fff" stroke="#707070" stroke-width="1"/>
    </clipPath>
  </defs>
  <g id="Groupe_de_masques_4" data-name="Groupe de masques 4" transform="translate(-952 -1744.5)" clip-path="url(#clip-path)">
    <g id="fast" transform="translate(952 1752.93)">
      <g id="Groupe_171" data-name="Groupe 171" transform="translate(4.245 18.821)">
        <g id="Groupe_170" data-name="Groupe 170">
          <rect id="Rectangle_67" data-name="Rectangle 67" width="9.015" height="4.6" fill="#fff"/>
        </g>
      </g>
      <g id="Groupe_173" data-name="Groupe 173" transform="translate(4.245 37.219)">
        <g id="Groupe_172" data-name="Groupe 172">
          <rect id="Rectangle_68" data-name="Rectangle 68" width="9.015" height="4.6" fill="#fff"/>
        </g>
      </g>
      <g id="Groupe_175" data-name="Groupe 175" transform="translate(0 28.02)">
        <g id="Groupe_174" data-name="Groupe 174">
          <rect id="Rectangle_69" data-name="Rectangle 69" width="13.261" height="4.6" fill="#fff"/>
        </g>
      </g>
      <g id="Groupe_177" data-name="Groupe 177" transform="translate(17.86 0)">
        <g id="Groupe_176" data-name="Groupe 176">
          <path id="Tracé_319" data-name="Tracé 319" d="M54.437,12.059a30.32,30.32,0,1,0,30.32,30.32A30.354,30.354,0,0,0,54.437,12.059Zm0,56.04a25.72,25.72,0,1,1,25.72-25.72A25.749,25.749,0,0,1,54.437,68.1Z" transform="translate(-24.117 -12.059)" fill="#fff"/>
        </g>
      </g>
      <g id="Groupe_179" data-name="Groupe 179" transform="translate(45.065 16.606)">
        <g id="Groupe_178" data-name="Groupe 178">
          <path id="Tracé_320" data-name="Tracé 320" d="M65.452,49.339V34.483h-4.6V51.77l11.853,8.077,2.59-3.8Z" transform="translate(-60.853 -34.483)" fill="#fff"/>
        </g>
      </g>
    </g>
  </g>
</svg>
