<svg xmlns="http://www.w3.org/2000/svg" xmlns:xlink="http://www.w3.org/1999/xlink" width="78" height="78" viewBox="0 0 78 78">
  <defs>
    <clipPath id="clip-path">
      <circle id="Ellipse_13" data-name="Ellipse 13" cx="39" cy="39" r="39" transform="translate(2094.271 1605.277)" fill="#fff"/>
    </clipPath>
  </defs>
  <g id="Groupe_de_masques_7" data-name="Groupe de masques 7" transform="translate(-2094.271 -1605.277)" clip-path="url(#clip-path)">
    <path id="savings" d="M59.692,28.235h-4.53a20.545,20.545,0,0,0-8.494-9.6l-.018-6.951a1.994,1.994,0,0,0-2.955-1.743l-5.25,2.885a12.966,12.966,0,1,0-25.5,4.455A20.627,20.627,0,0,0,8.6,53.181v6.484a2,2,0,0,0,1.995,1.995H20.627a2,2,0,0,0,1.995-1.993l0-2.61h11.6l-.01,2.6a1.994,1.994,0,0,0,1.995,2h9.44a2,2,0,0,0,1.995-1.995V53.607a20.623,20.623,0,0,0,8.477-11.721h3.574a2,2,0,0,0,1.995-1.995V30.23A2,2,0,0,0,59.692,28.235ZM25.569,5.368a8.97,8.97,0,0,1,8.85,10.48c0,.02-.007.041-.011.061A8.978,8.978,0,1,1,25.569,5.368ZM57.7,37.9H54.532a2,2,0,0,0-1.96,1.626,16.633,16.633,0,0,1-7.936,11.261,2,2,0,0,0-.984,1.72V57.67H38.209l.01-2.6a1.994,1.994,0,0,0-1.995-2H20.63a2,2,0,0,0-1.995,1.993l0,2.61H12.587V52.125a1.994,1.994,0,0,0-.918-1.679,16.64,16.64,0,0,1,2.763-29.465,13.051,13.051,0,0,0,1.793,2.344h-1.63a1.995,1.995,0,1,0,0,3.989H36.542a1.995,1.995,0,0,0,0-3.989h-1.63a12.959,12.959,0,0,0,3.223-5.775l4.534-2.492.013,4.766A2,2,0,0,0,43.77,21.6a16.6,16.6,0,0,1,8.15,9.3A2,2,0,0,0,53.8,32.224h3.9V37.9Z" transform="translate(2103.564 1610.577)" fill="#fff"/>
  </g>
</svg>
