<svg xmlns="http://www.w3.org/2000/svg" xmlns:xlink="http://www.w3.org/1999/xlink" width="161.04" height="116.991" viewBox="0 0 161.04 116.991">
  <defs>
    <clipPath id="clip-path">
      <path id="Tracé_347" data-name="Tracé 347" d="M657.511,181.253H560.08a12.035,12.035,0,0,0-12,12v69.908c0,6.6.116,12,6.716-11.615h108.11c6.6,23.615,6.6,18.215,6.6,11.615V193.253A12.035,12.035,0,0,0,657.511,181.253Z" fill="none"/>
    </clipPath>
  </defs>
  <g id="Groupe_252" data-name="Groupe 252" transform="translate(-548.08 -181.253)">
    <text id="votre_projet_en_plus_simple" data-name="votre projet en plus simple" transform="translate(560.885 295.244)" fill="#fff" font-size="13.148" font-family="MyriadPro-Regular, Myriad Pro"><tspan x="0" y="0">votre projet en plus simple</tspan></text>
    <g id="Groupe_250" data-name="Groupe 250">
      <g id="Groupe_249" data-name="Groupe 249" clip-path="url(#clip-path)">
        <g id="Groupe_248" data-name="Groupe 248">
          <path id="Tracé_346" data-name="Tracé 346" d="M606.041,205.73l-44.656,33.493a3.4,3.4,0,0,0-1.326,2.686V302.2a3.481,3.481,0,0,0,3.349,3.349h30.144A3.481,3.481,0,0,0,596.9,302.2V289.916a11.164,11.164,0,0,1,22.328,0V302.2a3.481,3.481,0,0,0,3.349,3.349h30.144a3.481,3.481,0,0,0,3.349-3.349V241.909a3.419,3.419,0,0,0-1.326-2.686L610.088,205.73A3.426,3.426,0,0,0,606.041,205.73Zm2.024,6.873,41.307,30.981v55.263H625.928v-8.931a17.863,17.863,0,0,0-35.726,0v8.931H566.758V243.584Z" fill="#fff" stroke="#fcc265" stroke-miterlimit="10" stroke-width="1"/>
        </g>
      </g>
    </g>
    <g id="Groupe_251" data-name="Groupe 251">
      <g id="Tracé_348" data-name="Tracé 348" fill="#e06965" stroke-miterlimit="10">
        <path d="M 580.5570678710938 282.8052673339844 C 580.2655639648438 282.8052673339844 580.0009155273438 282.7271423339844 579.7704467773438 282.5730285644531 L 579.7628784179688 282.5679321289062 L 579.7554321289062 282.5625915527344 L 567.0112915039062 273.3490600585938 L 567.0112915039062 280.9590148925781 L 567.0112915039062 281.0530395507812 L 566.9771118164062 281.140625 C 566.7857055664062 281.6307678222656 566.2931518554688 281.9998168945312 565.51318359375 282.237548828125 C 564.924560546875 282.4169311523438 564.1751708984375 282.5157470703125 563.4028930664062 282.5157775878906 C 562.6452026367188 282.5158386230469 561.931640625 282.4220886230469 561.3936767578125 282.2518005371094 C 560.4234008789062 281.9446716308594 560.2197265625 281.4477844238281 560.2197265625 281.0849914550781 L 560.2197265625 248.8200073242188 L 560.2197265625 248.7346343994141 L 560.2481079101562 248.6541137695312 C 560.6058349609375 247.6384582519531 562.6152954101562 247.2698059082031 563.878662109375 247.2698059082031 C 564.7396850585938 247.2698059082031 566.2673950195312 247.4239959716797 566.8252563476562 248.4567108154297 L 566.88134765625 248.5605010986328 L 566.885009765625 248.6784362792969 C 566.9740600585938 251.5337982177734 566.937744140625 254.1710968017578 566.9085693359375 256.2901916503906 C 566.8960571289062 257.1977844238281 566.88525390625 257.9815673828125 566.88525390625 258.6700134277344 L 566.88525390625 264.3578491210938 L 580.4212646484375 256.2842102050781 L 580.454833984375 256.26416015625 L 580.4911499023438 256.2496032714844 C 580.68505859375 256.1718444824219 580.8883056640625 256.1324462890625 581.0952758789062 256.1324462890625 C 582.1708374023438 256.1324462890625 583.1137084960938 257.1926879882812 583.6375122070312 258.1849060058594 C 584.019775390625 258.9135437011719 584.6149291992188 260.2566528320312 584.3125610351562 261.0782470703125 C 584.2166748046875 261.3388061523438 584.0407104492188 261.5326232910156 583.802001953125 261.641357421875 L 571.8831176757812 268.7527770996094 L 583.6181640625 277.3990478515625 L 583.7179565429688 277.4725341796875 L 583.7717895507812 277.5841674804688 C 584.2047119140625 278.4821472167969 584.0360107421875 279.6611328125 583.3088989257812 280.8188171386719 C 582.6879272460938 281.8075866699219 581.59619140625 282.8052673339844 580.5570678710938 282.8052673339844 Z" stroke="none"/>
        <path d="M 580.5570678710938 282.3059997558594 C 581.9840698242188 282.3059997558594 584.1575927734375 279.5342102050781 583.322021484375 277.8009948730469 L 570.9819946289062 268.7090148925781 L 583.573974609375 261.1960144042969 C 584.2030029296875 260.9429931640625 583.8250122070312 259.6170043945312 583.1959838867188 258.4179992675781 C 582.712158203125 257.5015258789062 581.9080200195312 256.6317138671875 581.0952758789062 256.6317138671875 C 580.9556274414062 256.6317138671875 580.8156127929688 256.6574401855469 580.677001953125 256.7130126953125 L 566.385986328125 265.2369995117188 L 566.385986328125 258.6700134277344 C 566.385986328125 256.3340148925781 566.5120239257812 252.7350006103516 566.385986328125 248.6940002441406 C 566.0293579101562 248.0337982177734 564.9806518554688 247.7690887451172 563.878662109375 247.7690887451172 C 562.4501953125 247.7690887451172 560.932373046875 248.2142791748047 560.718994140625 248.8200073242188 L 560.718994140625 281.0849914550781 C 560.718994140625 281.68505859375 562.0253295898438 282.0165710449219 563.4028930664062 282.0165100097656 C 564.7801513671875 282.0164184570312 566.2285766601562 281.6849365234375 566.5120239257812 280.9590148925781 L 566.5120239257812 272.3720092773438 L 580.0479736328125 282.1579895019531 C 580.1997680664062 282.2594909667969 580.3720092773438 282.3059997558594 580.5570678710938 282.3059997558594 M 580.5570678710938 283.3045654296875 C 580.1705322265625 283.3045654296875 579.8025512695312 283.1951293945312 579.492919921875 282.9880676269531 L 579.4777221679688 282.9779052734375 L 579.4629516601562 282.9672241210938 L 567.5105590820312 274.3261108398438 L 567.5105590820312 280.9590148925781 L 567.5105590820312 281.1470642089844 L 567.4421997070312 281.322265625 C 567.1923828125 281.9619750976562 566.59228515625 282.4306030273438 565.6587524414062 282.7151489257812 C 565.0242309570312 282.9085083007812 564.22314453125 283.0150146484375 563.4029541015625 283.0150756835938 C 562.595458984375 283.0151062011719 561.828369140625 282.9130859375 561.2430419921875 282.7278137207031 C 559.918212890625 282.3084716796875 559.720458984375 281.5185546875 559.720458984375 281.0849914550781 L 559.720458984375 248.8200073242188 L 559.720458984375 248.6492614746094 L 559.7771606445312 248.4882202148438 C 560.2548217773438 247.1322937011719 562.5800170898438 246.7705230712891 563.878662109375 246.7705230712891 C 565.557373046875 246.7705230712891 566.7598266601562 247.2850799560547 567.2645263671875 248.2193908691406 L 567.376708984375 248.4270172119141 L 567.384033203125 248.6628723144531 C 567.4734497070312 251.5294494628906 567.4370727539062 254.1729583740234 567.4077758789062 256.2970886230469 C 567.3953247070312 257.2028198242188 567.384521484375 257.9850158691406 567.384521484375 258.6700134277344 L 567.384521484375 263.4786987304688 L 580.1654663085938 255.8554229736328 L 580.232666015625 255.8153381347656 L 580.3052978515625 255.7862243652344 C 580.5585327148438 255.6846618652344 580.8243408203125 255.6331481933594 581.0952758789062 255.6331481933594 C 581.7236328125 255.6331481933594 582.3624877929688 255.9136199951172 582.9428100585938 256.4442443847656 C 583.4866333007812 256.9414978027344 583.8609008789062 257.5385437011719 584.0790405273438 257.9518432617188 C 584.5934448242188 258.9322814941406 585.131591796875 260.2982788085938 584.7811279296875 261.2506408691406 C 584.6436157226562 261.6243591308594 584.3814086914062 261.9164733886719 584.0370483398438 262.0824890136719 L 572.7841796875 268.7965087890625 L 583.9143676757812 276.9970703125 L 584.1138916015625 277.1441040039062 L 584.2214965820312 277.3673400878906 C 584.7305908203125 278.42333984375 584.5520629882812 279.7781372070312 583.7317504882812 281.0843505859375 C 583.0885009765625 282.1085205078125 581.87109375 283.3045654296875 580.5570678710938 283.3045654296875 Z" stroke="none" fill="#fcc265"/>
      </g>
      <g id="Tracé_349" data-name="Tracé 349" fill="#e06965" stroke-miterlimit="10">
        <path d="M 613.4675903320312 283.4582214355469 C 612.4459838867188 283.4582214355469 611.7479248046875 283.1050720214844 611.5018920898438 282.4638366699219 L 609.5704956054688 277.4369201660156 C 608.92138671875 278.509033203125 607.992431640625 279.5562133789062 606.8762817382812 280.462158203125 C 605.4154052734375 281.6479187011719 603.7326049804688 282.5124206542969 602.1378784179688 282.8964233398438 L 602.1316528320312 282.8979187011719 L 602.1253662109375 282.8992614746094 C 601.174072265625 283.1026000976562 600.1016845703125 283.2100830078125 599.0241088867188 283.2100830078125 C 597.2749633789062 283.2100830078125 594.7033081054688 282.9257202148438 592.3853759765625 281.5711059570312 C 589.984130859375 280.1677856445312 588.4232788085938 277.9598388671875 587.746337890625 275.0086364746094 L 587.745361328125 275.00439453125 L 587.7444458007812 275.0001220703125 C 586.9871215820312 271.4123229980469 587.8383178710938 267.3280944824219 590.0213623046875 264.0747985839844 C 591.2357788085938 262.2658996582031 592.7536010742188 260.8328857421875 594.5327758789062 259.8154602050781 C 596.5143432617188 258.6822814941406 598.7582397460938 258.1076965332031 601.2020263671875 258.1076965332031 C 601.2378540039062 258.1073913574219 601.2781372070312 258.1072082519531 601.3179321289062 258.1072082519531 C 604.7650146484375 258.1072082519531 607.4931640625 259.373046875 609.6583862304688 261.9770812988281 C 611.5894165039062 264.2994689941406 612.8521118164062 267.4600830078125 613.8840942382812 270.2402648925781 C 614.5203857421875 271.9124145507812 614.979736328125 273.0259704589844 615.385009765625 274.0084533691406 C 616.1268310546875 275.8067932128906 616.6170654296875 276.9952392578125 617.4816284179688 279.9261474609375 C 617.7075805664062 280.6147766113281 617.5528564453125 281.30615234375 617.0339965820312 281.9261779785156 C 616.531982421875 282.5260925292969 615.8196411132812 282.9085998535156 615.3104248046875 283.1238708496094 L 615.2960815429688 283.1299438476562 L 615.2814331054688 283.1351013183594 C 614.6878662109375 283.3434753417969 614.043701171875 283.4582214355469 613.4675903320312 283.4582214355469 Z M 600.80712890625 264.6950378417969 C 600.5634155273438 264.6950378417969 600.3060302734375 264.7047729492188 600.042236328125 264.7239685058594 C 597.9913330078125 264.8931274414062 596.1143798828125 265.9770812988281 594.8975219726562 267.6975402832031 C 593.6802978515625 269.4185485839844 593.28564453125 271.5589599609375 593.8148193359375 273.5699157714844 L 593.8158569335938 273.5738525390625 L 593.8168334960938 273.5777893066406 C 594.4260864257812 276.0562744140625 595.9608764648438 277.2611389160156 598.5089721679688 277.26123046875 C 598.509033203125 277.26123046875 598.5092163085938 277.26123046875 598.50927734375 277.26123046875 C 599.3956298828125 277.26123046875 600.42041015625 277.1128540039062 601.5557250976562 276.8201599121094 C 603.1426391601562 276.2215270996094 604.76904296875 274.5791625976562 605.6089477539062 272.7246398925781 C 606.1031494140625 271.6334228515625 606.5546264648438 269.9723815917969 605.8986206054688 268.2562561035156 C 604.9373168945312 265.7604370117188 603.4144897460938 264.6950378417969 600.80712890625 264.6950378417969 Z" stroke="none"/>
        <path d="M 613.4675903320312 282.9589538574219 C 613.993896484375 282.9589538574219 614.583251953125 282.8510437011719 615.1160278320312 282.6640014648438 C 616.31298828125 282.1579895019531 617.3829956054688 281.2109985351562 617.0050048828125 280.0750122070312 C 615.6829833984375 275.5920104980469 615.2420043945312 275.2130126953125 613.416015625 270.4140014648438 C 611.224609375 264.5101623535156 608.5960693359375 258.6065063476562 601.3179321289062 258.6065063476562 C 601.279541015625 258.6065063476562 601.2406616210938 258.6066589355469 601.2020263671875 258.6069946289062 C 596.22900390625 258.6069946289062 592.6400146484375 261.0700073242188 590.4359741210938 264.3529968261719 C 588.2329711914062 267.635986328125 587.5399780273438 271.614013671875 588.2329711914062 274.8970031738281 C 589.6619873046875 281.126708984375 594.9517822265625 282.7107849121094 599.0241088867188 282.7107849121094 C 600.152587890625 282.7107849121094 601.1875610351562 282.5891418457031 602.02099609375 282.4110107421875 C 605.1690063476562 281.6530151367188 608.4420166015625 279.0010070800781 609.6389770507812 276.2229919433594 L 611.968017578125 282.2850036621094 C 612.1497192382812 282.7585754394531 612.7501831054688 282.9589538574219 613.4675903320312 282.9589538574219 M 600.80712890625 264.1957702636719 C 603.7565307617188 264.1957702636719 605.3807373046875 265.5226135253906 606.364990234375 268.0780029296875 C 607.81298828125 271.8659973144531 604.6019897460938 276.2229919433594 601.7059936523438 277.2969970703125 C 600.6173706054688 277.5792846679688 599.5291137695312 277.7605590820312 598.5089721679688 277.7605285644531 C 596.1068725585938 277.7604370117188 594.083740234375 276.7551879882812 593.3319702148438 273.6969909667969 C 592.135986328125 269.1520080566406 595.4099731445312 264.6050109863281 600.0059814453125 264.2260131835938 C 600.2835083007812 264.205810546875 600.5502319335938 264.1957702636719 600.80712890625 264.1957702636719 M 613.4675903320312 283.95751953125 C 612.2427368164062 283.95751953125 611.3563232421875 283.478271484375 611.0357055664062 282.6427001953125 L 609.4484252929688 278.5113525390625 C 608.8330688476562 279.3421020507812 608.0668334960938 280.1388549804688 607.19091796875 280.8498229980469 C 605.6734619140625 282.08154296875 603.92041015625 282.9807739257812 602.2547607421875 283.3818054199219 L 602.2422485351562 283.3848266601562 L 602.229736328125 283.3875122070312 C 601.2446899414062 283.5980529785156 600.1361694335938 283.7093505859375 599.0241088867188 283.7093505859375 C 597.2132568359375 283.7093505859375 594.5479125976562 283.4131774902344 592.1334838867188 282.0021667480469 C 589.6084594726562 280.5265197753906 587.9686889648438 278.2111206054688 587.2597045898438 275.1202697753906 L 587.2577514648438 275.1117553710938 L 587.2559204101562 275.1032409667969 C 586.4713745117188 271.3862915039062 587.3501586914062 267.1595153808594 589.6068115234375 263.7966003417969 C 592.2852172851562 259.8070068359375 596.4013671875 257.6094970703125 601.1981201171875 257.6084289550781 C 601.2380981445312 257.6080932617188 601.2782592773438 257.6079406738281 601.3179321289062 257.6079406738281 C 604.922607421875 257.6079406738281 607.7763671875 258.9326782226562 610.0422973632812 261.6578674316406 C 612.0228881835938 264.0398559570312 613.3048706054688 267.2452392578125 614.3510131835938 270.0633239746094 C 614.9853515625 271.7303161621094 615.44287109375 272.8394775390625 615.8465576171875 273.8180541992188 C 616.59375 275.6294860839844 617.087890625 276.8273620605469 617.95849609375 279.7781066894531 C 618.438720703125 281.2575378417969 617.477783203125 282.7496948242188 615.5048217773438 283.583740234375 L 615.4761962890625 283.5958557128906 L 615.44677734375 283.606201171875 C 614.8014526367188 283.8327331542969 614.0985717773438 283.95751953125 613.4675903320312 283.95751953125 Z M 600.0836791992188 265.2215576171875 C 598.17724609375 265.380126953125 596.4356689453125 266.3875122070312 595.30517578125 267.9858703613281 C 594.17333984375 269.5860290527344 593.80615234375 271.5750427246094 594.2976684570312 273.44287109375 L 594.2997436523438 273.4507446289062 L 594.3016357421875 273.4586181640625 C 594.8556518554688 275.7122192382812 596.1925659179688 276.7618713378906 598.509033203125 276.761962890625 C 599.3466796875 276.761962890625 600.3203735351562 276.6212463378906 601.4042358398438 276.3435974121094 C 602.867431640625 275.7811279296875 604.36962890625 274.2508544921875 605.1541748046875 272.5186767578125 C 605.6091918945312 271.5139770507812 606.0267944335938 269.9898681640625 605.4322509765625 268.4345397949219 C 604.5460815429688 266.1337585449219 603.205810546875 265.1943054199219 600.80712890625 265.1943054199219 C 600.5769653320312 265.1943054199219 600.3336181640625 265.2034912109375 600.0836791992188 265.2215576171875 Z" stroke="none" fill="#fcc265"/>
      </g>
      <g id="Tracé_350" data-name="Tracé 350" fill="#e06965" stroke-miterlimit="10">
        <path d="M 640.551025390625 282.6572570800781 L 622.6710205078125 282.6572570800781 L 621.617919921875 282.6572570800781 L 622.2844848632812 281.8419799804688 C 624.942626953125 278.590576171875 628.0169067382812 275.136962890625 632.251953125 270.64453125 C 633.27490234375 269.5101623535156 633.9622802734375 268.6543273925781 634.4148559570312 267.9517517089844 C 635.0902709960938 266.9031982421875 635.0410766601562 266.4985046386719 634.988525390625 266.3731689453125 C 634.9122314453125 266.1910705566406 634.5684814453125 266.0735778808594 634.0452880859375 266.0508117675781 C 633.431396484375 266.023193359375 632.8386840820312 266.0092163085938 632.2827758789062 266.0092163085938 C 629.6151123046875 266.0092163085938 627.9507446289062 266.3298950195312 626.3411254882812 266.6400451660156 C 625.4232177734375 266.81689453125 624.4740600585938 266.9997863769531 623.3543090820312 267.122314453125 L 623.2949829101562 267.1288146972656 L 623.2357788085938 267.1211242675781 C 622.10205078125 266.97412109375 621.2041625976562 265.8273620605469 621.0523681640625 264.3324279785156 C 620.8985595703125 262.8179626464844 621.5686645507812 261.5746154785156 622.7595825195312 261.1648864746094 L 622.7955322265625 261.1524963378906 L 622.8329467773438 261.1457214355469 C 626.4612426757812 260.4879760742188 629.6022338867188 260.1544799804688 632.1685180664062 260.1544799804688 C 634.5010375976562 260.1544799804688 636.4051513671875 260.4320983886719 637.8281860351562 260.9796447753906 C 639.9981079101562 261.749267578125 641.3053588867188 262.8768310546875 641.7139892578125 264.3312072753906 C 641.9930419921875 265.3245544433594 641.8511962890625 266.4777221679688 641.2922973632812 267.7586975097656 C 640.8151245117188 268.8523254394531 640.04052734375 270.05126953125 638.9243774414062 271.4240112304688 L 638.9214477539062 271.4275512695312 L 638.9185180664062 271.4310302734375 L 638.5493774414062 271.8685302734375 C 636.9019775390625 273.8209228515625 635.7382202148438 275.2002258300781 634.1863403320312 276.9237365722656 L 640.5355834960938 276.9237365722656 C 640.5639038085938 276.922119140625 640.5923461914062 276.9213256835938 640.6204223632812 276.9213256835938 C 641.8834228515625 276.9213256835938 642.56494140625 278.4615783691406 642.56494140625 279.9108276367188 C 642.56494140625 280.6027221679688 642.4113159179688 281.2440185546875 642.13232421875 281.7166442871094 C 641.7742919921875 282.3232116699219 641.2127075195312 282.6572570800781 640.551025390625 282.6572570800781 Z" stroke="none"/>
        <path d="M 632.1685180664062 260.6537475585938 C 629.4251708984375 260.6537475585938 626.232666015625 261.0368347167969 622.9219970703125 261.6369934082031 C 620.718994140625 262.3949890136719 621.3489990234375 266.3729858398438 623.2999877929688 266.6260070800781 C 626.3656005859375 266.2904968261719 628.0488891601562 265.5099487304688 632.2827758789062 265.5099487304688 C 632.83154296875 265.5099487304688 633.4239501953125 265.5230712890625 634.0670166015625 265.552001953125 C 636.9619750976562 265.6780090332031 635.010986328125 268.3309936523438 632.6190185546875 270.9830017089844 C 628.2739868164062 275.5920104980469 625.2520141601562 279.0010070800781 622.6710205078125 282.1579895019531 L 640.551025390625 282.1579895019531 C 642.7268676757812 282.1579895019531 642.386474609375 277.4202270507812 640.6204223632812 277.4205932617188 C 640.5975952148438 277.4205932617188 640.5743408203125 277.42138671875 640.551025390625 277.4230041503906 L 633.0590209960938 277.4230041503906 C 635.1370239257812 275.1499938964844 636.458984375 273.5710144042969 638.5369873046875 271.1090087890625 C 641.8740234375 267.0050048828125 643.0070190429688 263.3429870605469 637.655029296875 261.447998046875 C 636.2122192382812 260.8914184570312 634.3298950195312 260.6537475585938 632.1685180664062 260.6537475585938 M 632.1685180664062 259.6552124023438 C 634.55908203125 259.6552124023438 636.5213012695312 259.9431762695312 638.0010375976562 260.5111999511719 C 640.3290405273438 261.3381958007812 641.739990234375 262.5779724121094 642.1946411132812 264.1961669921875 C 642.5057373046875 265.3032836914062 642.3560791015625 266.5690612792969 641.7498779296875 267.9583740234375 C 641.25439453125 269.0940246582031 640.4568481445312 270.3306884765625 639.311767578125 271.7389831542969 L 639.3059692382812 271.74609375 L 639.300048828125 271.7530822753906 L 638.93115234375 272.1902160644531 C 637.5533447265625 273.8232116699219 636.51318359375 275.0560302734375 635.301513671875 276.4244384765625 L 640.5225219726562 276.4244384765625 C 640.5549926757812 276.4228515625 640.587646484375 276.4220581054688 640.6199951171875 276.4220275878906 C 640.6201171875 276.4220275878906 640.6202392578125 276.4220275878906 640.6204223632812 276.4220275878906 C 641.3876342773438 276.4220275878906 642.0570068359375 276.8496704101562 642.5054931640625 277.626220703125 C 643.2247314453125 278.87158203125 643.2559814453125 280.7690124511719 642.5765991210938 281.9458923339844 C 642.1259155273438 282.7265930175781 641.4065551757812 283.1565551757812 640.551025390625 283.1565551757812 L 622.6710205078125 283.1565551757812 L 620.5648193359375 283.1565551757812 L 621.89794921875 281.5259704589844 C 624.5630493164062 278.2661437988281 627.6434936523438 274.8053283691406 631.8848266601562 270.3060607910156 C 632.8037719726562 269.2868347167969 633.4367065429688 268.5097045898438 633.8765258789062 267.8607482910156 C 634.354248046875 267.15576171875 634.4760131835938 266.7781982421875 634.5065307617188 266.6192626953125 C 634.4239501953125 266.5931701660156 634.274169921875 266.5605163574219 634.0236206054688 266.5496215820312 C 633.4164428710938 266.5223083496094 632.8312377929688 266.5084838867188 632.2827758789062 266.5084838867188 C 629.6627807617188 266.5084838867188 628.09521484375 266.8105163574219 626.4356079101562 267.1303100585938 C 625.5078735351562 267.3090515136719 624.548583984375 267.4938659667969 623.4086303710938 267.61865234375 L 623.2899169921875 267.6316223144531 L 623.1715698242188 267.6162719726562 C 622.4319458007812 267.5203552246094 621.7601928710938 267.090087890625 621.2799072265625 266.4046936035156 C 620.8885498046875 265.8460998535156 620.6312866210938 265.1280822753906 620.5556640625 264.3828735351562 C 620.3775634765625 262.6292114257812 621.1788940429688 261.1807556152344 622.5971069335938 260.6927490234375 L 622.6690673828125 260.6679992675781 L 622.743896484375 260.6544494628906 C 626.4014892578125 259.9913940429688 629.5724487304688 259.6552124023438 632.1685180664062 259.6552124023438 Z" stroke="none" fill="#fcc265"/>
      </g>
      <g id="Tracé_351" data-name="Tracé 351" fill="#e06965" stroke-miterlimit="10">
        <path d="M 660.357421875 283.5197143554688 C 657.5248413085938 283.5197143554688 654.8760986328125 282.7466125488281 652.8990478515625 281.3428649902344 C 651.7239379882812 280.5084838867188 650.787353515625 279.4578857421875 650.115478515625 278.2203063964844 C 649.3740234375 276.8546752929688 648.9540405273438 275.2561950683594 648.8673706054688 273.4692077636719 L 648.8667602539062 273.4571228027344 L 648.8667602539062 273.4450073242188 L 648.8667602539062 269.656005859375 L 648.8667602539062 269.6473999023438 L 648.8670654296875 269.6388244628906 L 649.4967041015625 251.3358001708984 C 649.5003051757812 250.6669464111328 649.8948364257812 250.1038970947266 650.6085205078125 249.7496948242188 C 651.15478515625 249.4785614013672 651.8912963867188 249.3292541503906 652.6824340820312 249.3292541503906 C 653.6721801757812 249.3292541503906 654.96484375 249.5806579589844 655.624755859375 250.2863006591797 C 655.91650390625 250.5982513427734 656.0578002929688 250.9725036621094 656.03369140625 251.3691711425781 L 655.6888427734375 261.6828918457031 C 657.1887817382812 260.7074279785156 658.6876831054688 260.0034790039062 660.851806640625 259.5694580078125 C 661.9597778320312 259.3423767089844 663.0376586914062 259.2270202636719 664.0535278320312 259.2270202636719 C 667.26123046875 259.2270202636719 669.9674072265625 260.3758544921875 671.8795776367188 262.54931640625 C 673.5711059570312 264.4720153808594 674.584228515625 267.1653442382812 674.7324829101562 270.1337585449219 C 674.8840942382812 272.615966796875 674.4644775390625 274.8230895996094 673.4852905273438 276.69384765625 C 672.6525268554688 278.2847595214844 671.4122314453125 279.6414489746094 669.798828125 280.7262268066406 C 666.6351318359375 282.8533325195312 662.9376220703125 283.3582458496094 661.4948120117188 283.4766235351562 C 661.1185913085938 283.5052795410156 660.7368774414062 283.5197143554688 660.357421875 283.5197143554688 Z M 661.0833740234375 265.7811279296875 C 657.2509155273438 266.872802734375 654.9718017578125 269.7139587402344 655.2771606445312 273.0200805664062 L 655.2775268554688 273.0239562988281 L 655.27783203125 273.0278015136719 C 655.381591796875 274.3794860839844 656.0071411132812 275.5258178710938 657.0869750976562 276.3428649902344 C 658.1307373046875 277.1326599121094 659.5548095703125 277.5676879882812 661.0968017578125 277.5677490234375 C 661.0969848632812 277.5677490234375 661.09716796875 277.5677490234375 661.0973510742188 277.5677490234375 C 661.242431640625 277.5677490234375 661.3902587890625 277.5638732910156 661.5370483398438 277.5562133789062 C 663.3629760742188 277.3428344726562 665.1143188476562 276.6812744140625 666.3441772460938 275.739990234375 C 667.9263305664062 274.5290832519531 668.6760864257812 272.8960571289062 668.5725708007812 270.8860778808594 C 668.4695434570312 269.3658142089844 667.9657592773438 268.0079956054688 667.1537475585938 267.0622863769531 C 666.2338256835938 265.9908752441406 664.9646606445312 265.4476013183594 663.3814697265625 265.4476013183594 C 662.6724243164062 265.4476013183594 661.8992919921875 265.559814453125 661.0833740234375 265.7811279296875 Z" stroke="none"/>
        <path d="M 660.357421875 283.0204162597656 C 660.7299194335938 283.0204162597656 661.0966796875 283.0062255859375 661.4539794921875 282.97900390625 C 665.2940063476562 282.6640014648438 674.864013671875 280.4540100097656 674.2340087890625 270.1619873046875 C 673.9601440429688 264.6552429199219 670.6232299804688 259.7262878417969 664.0535278320312 259.7262878417969 C 663.0892333984375 259.7262878417969 662.0540771484375 259.8327026367188 660.9500122070312 260.0589904785156 C 658.4320068359375 260.5639953613281 656.8579711914062 261.447998046875 655.156982421875 262.6480102539062 L 655.5349731445312 251.3450012207031 C 655.6004638671875 250.3685302734375 654.126220703125 249.8285369873047 652.6824340820312 249.8285369873047 C 651.3258056640625 249.8285369873047 649.9959716796875 250.3054046630859 649.9959716796875 251.3450012207031 L 649.3660278320312 269.656005859375 L 649.3660278320312 273.4450073242188 C 649.7158813476562 280.6531066894531 655.5445556640625 283.0204162597656 660.357421875 283.0204162597656 M 663.3814697265625 264.9483337402344 C 667.0742797851562 264.9483337402344 668.8616333007812 267.7489624023438 669.0709838867188 270.8559875488281 C 669.323974609375 275.7179870605469 664.85302734375 277.6759948730469 661.5789794921875 278.0539855957031 C 661.4169921875 278.0627136230469 661.2564697265625 278.0670471191406 661.0968017578125 278.0670471191406 C 657.7825317382812 278.0668640136719 655.0203857421875 276.1981201171875 654.780029296875 273.0660095214844 C 654.4650268554688 269.656005859375 656.7319946289062 266.5 660.9500122070312 265.2999877929688 C 661.837890625 265.0589294433594 662.64697265625 264.9483337402344 663.3814697265625 264.9483337402344 M 660.357421875 284.0189819335938 C 657.4221801757812 284.0189819335938 654.6707763671875 283.2131652832031 652.6099853515625 281.7499389648438 C 650.0077514648438 279.9022827148438 648.5411376953125 277.0472412109375 648.36865234375 273.493408203125 L 648.3674926757812 273.46923828125 L 648.3674926757812 273.4450073242188 L 648.3674926757812 269.656005859375 L 648.3674926757812 269.6388244628906 L 648.3680419921875 269.6216735839844 L 648.9974975585938 251.3253326416016 C 649.0104370117188 249.8319549560547 650.4879760742188 248.8299713134766 652.6824340820312 248.8299713134766 C 653.2135620117188 248.8299713134766 655.0216674804688 248.910400390625 655.9894409179688 249.9452667236328 C 656.37548828125 250.3581085205078 656.5630493164062 250.8580932617188 656.5325317382812 251.3922424316406 L 656.2189331054688 260.7691345214844 C 657.517578125 260.0147399902344 658.8978881835938 259.4521179199219 660.753662109375 259.0799255371094 C 661.8923950195312 258.8465270996094 663.0040283203125 258.7277526855469 664.0535278320312 258.7277526855469 C 667.408935546875 258.7277526855469 670.2447509765625 259.9351806640625 672.2544555664062 262.2195434570312 C 674.0198974609375 264.2262268066406 675.076904296875 267.0273132324219 675.2310791015625 270.1072998046875 C 675.3876342773438 272.6800537109375 674.9490966796875 274.9738464355469 673.9276123046875 276.9253845214844 C 673.055908203125 278.5907287597656 671.760498046875 280.0089111328125 670.077392578125 281.1405639648438 C 666.8162231445312 283.3332214355469 663.0174560546875 283.8526611328125 661.53564453125 283.9742126464844 L 661.53271484375 283.9744567871094 L 661.5298461914062 283.9746704101562 C 661.1439819335938 284.0040893554688 660.74951171875 284.0189819335938 660.357421875 284.0189819335938 Z M 661.2175903320312 266.2620544433594 C 657.6287841796875 267.2852783203125 655.4921875 269.91943359375 655.7743530273438 272.9741516113281 L 655.7750854492188 272.9818725585938 L 655.775634765625 272.9895935058594 C 655.9314575195312 275.0197448730469 657.6372680664062 277.0682983398438 661.0968627929688 277.0684814453125 C 661.2283935546875 277.0684814453125 661.362060546875 277.0650939941406 661.4949951171875 277.0584411621094 C 663.2283325195312 276.853271484375 664.8837280273438 276.2290344238281 666.0407104492188 275.3435363769531 C 667.4833374023438 274.2394104003906 668.16748046875 272.74951171875 668.0741577148438 270.9154663085938 C 667.9935302734375 269.7391052246094 667.416259765625 265.9468994140625 663.3814697265625 265.9468994140625 C 662.7175903320312 265.9468994140625 661.9896240234375 266.0529174804688 661.2175903320312 266.2620544433594 Z" stroke="none" fill="#fcc265"/>
      </g>
      <g id="Tracé_352" data-name="Tracé 352" fill="#e06965" stroke-miterlimit="10">
        <path d="M 704.506591796875 283.4582214355469 C 703.4849853515625 283.4582214355469 702.7869262695312 283.1050720214844 702.5408935546875 282.4638366699219 L 700.60888671875 277.4373474121094 C 699.9602661132812 278.5091857910156 699.0316162109375 279.5562438964844 697.91552734375 280.462158203125 C 696.4547119140625 281.6478576660156 694.7718505859375 282.5123901367188 693.1768798828125 282.8964233398438 L 693.170654296875 282.8979187011719 L 693.1643676757812 282.8992614746094 C 692.2130737304688 283.1026000976562 691.1406860351562 283.2100830078125 690.0631103515625 283.2100830078125 C 688.31396484375 283.2100830078125 685.7422485351562 282.9257202148438 683.4241943359375 281.5711059570312 C 681.0227661132812 280.1677856445312 679.461669921875 277.9598693847656 678.7843627929688 275.0086975097656 L 678.7833862304688 275.0043334960938 L 678.782470703125 274.9999694824219 C 678.02587890625 271.4106750488281 678.87744140625 267.3264465332031 681.0604248046875 264.07470703125 C 682.27490234375 262.2657775878906 683.7926025390625 260.832763671875 685.5714111328125 259.8154602050781 C 687.5528564453125 258.6822814941406 689.7968139648438 258.1076965332031 692.2410278320312 258.1076965332031 C 692.27685546875 258.1073913574219 692.317138671875 258.1072082519531 692.35693359375 258.1072082519531 C 695.8040161132812 258.1072082519531 698.5321655273438 259.373046875 700.6973876953125 261.9770812988281 C 702.62841796875 264.2994689941406 703.89111328125 267.4600830078125 704.923095703125 270.2402648925781 C 705.5592041015625 271.9119873046875 706.0183715820312 273.025390625 706.4234619140625 274.0077209472656 C 707.1651611328125 275.8062133789062 707.6553344726562 276.9948120117188 708.5206298828125 279.9260864257812 C 708.7465209960938 280.6146545410156 708.5916748046875 281.3061218261719 708.0726318359375 281.9262390136719 C 707.5706176757812 282.5259094238281 706.8585205078125 282.9084777832031 706.3495483398438 283.1238098144531 L 706.3351440429688 283.1299133300781 L 706.3204345703125 283.1351013183594 C 705.7268676757812 283.3434753417969 705.0827026367188 283.4582214355469 704.506591796875 283.4582214355469 Z M 691.8461303710938 264.6950378417969 C 691.6024169921875 264.6950378417969 691.3450317382812 264.7047729492188 691.0812377929688 264.7239685058594 C 689.0303344726562 264.8931274414062 687.1533813476562 265.9770812988281 685.9365234375 267.6975402832031 C 684.7192993164062 269.4185485839844 684.3246459960938 271.5589599609375 684.8538208007812 273.5699157714844 L 684.8548583984375 273.5739135742188 L 684.8558349609375 273.5779113769531 C 685.4644775390625 276.0563354492188 686.9991455078125 277.2611389160156 689.5474243164062 277.26123046875 C 689.5474853515625 277.26123046875 689.5476684570312 277.26123046875 689.5477294921875 277.26123046875 C 690.43408203125 277.26123046875 691.458740234375 277.1128540039062 692.59375 276.8201599121094 C 694.1809692382812 276.2215881347656 695.8078002929688 274.5792541503906 696.6478271484375 272.7247314453125 C 697.1421508789062 271.6335144042969 697.5936279296875 269.9724731445312 696.9376220703125 268.2562561035156 C 695.9754638671875 265.7604675292969 694.4525756835938 264.6950378417969 691.8461303710938 264.6950378417969 Z" stroke="none"/>
        <path d="M 704.506591796875 282.9589538574219 C 705.0328979492188 282.9589538574219 705.6222534179688 282.8510437011719 706.155029296875 282.6640014648438 C 707.3510131835938 282.1579895019531 708.4219970703125 281.2109985351562 708.0440063476562 280.0750122070312 C 706.7210083007812 275.5920104980469 706.281005859375 275.2130126953125 704.4550170898438 270.4140014648438 C 702.2636108398438 264.5101623535156 699.6350708007812 258.6065063476562 692.35693359375 258.6065063476562 C 692.3185424804688 258.6065063476562 692.2796630859375 258.6066589355469 692.2410278320312 258.6069946289062 C 687.2670288085938 258.6069946289062 683.6790161132812 261.0700073242188 681.4749755859375 264.3529968261719 C 679.27099609375 267.635986328125 678.5789794921875 271.614013671875 679.27099609375 274.8970031738281 C 680.7008056640625 281.126708984375 685.9907836914062 282.7107849121094 690.0631103515625 282.7107849121094 C 691.1915893554688 282.7107849121094 692.2265625 282.5891418457031 693.0599975585938 282.4110107421875 C 696.2080078125 281.6530151367188 699.4819946289062 279.0010070800781 700.677001953125 276.2229919433594 L 703.0070190429688 282.2850036621094 C 703.188720703125 282.7585754394531 703.7891845703125 282.9589538574219 704.506591796875 282.9589538574219 M 691.8461303710938 264.1957702636719 C 694.7953491210938 264.1957702636719 696.4188232421875 265.5226135253906 697.4039916992188 268.0780029296875 C 698.8519897460938 271.8659973144531 695.6409912109375 276.2229919433594 692.7440185546875 277.2969970703125 C 691.6557006835938 277.5792846679688 690.5675659179688 277.7605590820312 689.5474243164062 277.7605285644531 C 687.1454467773438 277.7604370117188 685.1220092773438 276.7551879882812 684.3709716796875 273.6969909667969 C 683.1749877929688 269.1520080566406 686.448974609375 264.6050109863281 691.0449829101562 264.2260131835938 C 691.322509765625 264.205810546875 691.5891723632812 264.1957702636719 691.8461303710938 264.1957702636719 M 704.506591796875 283.95751953125 C 703.28173828125 283.95751953125 702.3953247070312 283.478271484375 702.07470703125 282.6427001953125 L 700.4869995117188 278.5118408203125 C 699.8720092773438 279.3423156738281 699.10595703125 280.1389770507812 698.2301635742188 280.8498229980469 C 696.7127685546875 282.0814819335938 694.9595947265625 282.980712890625 693.2937622070312 283.3818054199219 L 693.28125 283.3848266601562 L 693.2687377929688 283.3875122070312 C 692.28369140625 283.5980529785156 691.1751708984375 283.7093505859375 690.0631103515625 283.7093505859375 C 688.2522583007812 283.7093505859375 685.5868530273438 283.4131774902344 683.1723022460938 282.0021667480469 C 680.6471557617188 280.5265808105469 679.0071411132812 278.2112121582031 678.2977294921875 275.120361328125 L 678.2957763671875 275.1116943359375 L 678.2938842773438 275.1029663085938 C 677.5100708007812 271.3844909667969 678.3893432617188 267.1577453613281 680.6459350585938 263.7964172363281 C 683.32421875 259.8070068359375 687.4403686523438 257.6094970703125 692.2371215820312 257.6084289550781 C 692.277099609375 257.6080932617188 692.3172607421875 257.6079406738281 692.35693359375 257.6079406738281 C 695.9616088867188 257.6079406738281 698.8153686523438 258.9326782226562 701.081298828125 261.6578674316406 C 703.0618896484375 264.0398559570312 704.3438720703125 267.2452392578125 705.3900146484375 270.0633544921875 C 706.024169921875 271.7298889160156 706.4815063476562 272.8389282226562 706.885009765625 273.8173828125 C 707.632080078125 275.62890625 708.1260986328125 276.8268432617188 708.9974365234375 279.7778625488281 C 709.4776611328125 281.2568054199219 708.516845703125 282.7489929199219 706.5441284179688 283.5836486816406 L 706.5153198242188 283.5958251953125 L 706.4857788085938 283.606201171875 C 705.8404541015625 283.8327331542969 705.1375732421875 283.95751953125 704.506591796875 283.95751953125 Z M 691.1226806640625 265.2215576171875 C 689.2162475585938 265.380126953125 687.4746704101562 266.3875122070312 686.3441772460938 267.9858703613281 C 685.2123413085938 269.5860290527344 684.8451538085938 271.5750427246094 685.336669921875 273.44287109375 L 685.3387451171875 273.4508361816406 L 685.3406982421875 273.4588317871094 C 685.8941040039062 275.7122802734375 687.2308349609375 276.7618713378906 689.5474853515625 276.761962890625 C 690.3851318359375 276.761962890625 691.3587036132812 276.6212158203125 692.4422607421875 276.3435974121094 C 693.9058837890625 275.7812805175781 695.4083862304688 274.2510070800781 696.1930541992188 272.5187072753906 C 696.6481323242188 271.5140380859375 697.0657958984375 269.9899597167969 696.4712524414062 268.4345397949219 C 695.5842895507812 266.1338500976562 694.2440185546875 265.1943054199219 691.8461303710938 265.1943054199219 C 691.615966796875 265.1943054199219 691.3726196289062 265.2034912109375 691.1226806640625 265.2215576171875 Z" stroke="none" fill="#fcc265"/>
      </g>
    </g>
  </g>
</svg>
