<svg xmlns="http://www.w3.org/2000/svg" width="115.663" height="143.609" viewBox="0 0 115.663 143.609">
  <g id="Groupe_165" data-name="Groupe 165" transform="translate(123.612 -791.099)">
    <g id="Groupe_147" data-name="Groupe 147" transform="matrix(0.978, -0.208, 0.208, 0.978, -3690.766, -2977.233)">
      <path id="Tracé_249" data-name="Tracé 249" d="M2743.552,4494.051l-.084-37.251h42.843v110.945h-79.947v-73.711Zm-42.826-1.9v81.242h91.224V4451.152h-49.942Z" fill="#cd541f"/>
      <rect id="Rectangle_64" data-name="Rectangle 64" width="58.371" height="4.658" transform="translate(2774.397 4515.461) rotate(180)" fill="#cd541f"/>
      <rect id="Rectangle_65" data-name="Rectangle 65" width="58.371" height="4.658" transform="translate(2774.397 4532.649) rotate(180)" fill="#cd541f"/>
      <rect id="Rectangle_66" data-name="Rectangle 66" width="58.371" height="4.658" transform="translate(2774.397 4549.836) rotate(180)" fill="#cd541f"/>
    </g>
    <g id="Groupe_146" data-name="Groupe 146" transform="matrix(0.978, -0.208, 0.208, 0.978, -3683.306, -2983.365)">
      <path id="Tracé_249-2" data-name="Tracé 249" d="M2741.16,4491.587l-.079-35.111h40.45v104.573h-75.482v-69.477Zm-40.435-1.791v76.576h86.13v-115.22H2739.7Z" fill="#fff"/>
      <rect id="Rectangle_64-2" data-name="Rectangle 64" width="58.371" height="4.658" transform="translate(2772.025 4511.899) rotate(180)" fill="#fff"/>
      <rect id="Rectangle_65-2" data-name="Rectangle 65" width="58.371" height="4.658" transform="translate(2772.025 4528.061) rotate(180)" fill="#fff"/>
      <rect id="Rectangle_66-2" data-name="Rectangle 66" width="58.371" height="4.658" transform="translate(2772.025 4544.222) rotate(180)" fill="#fff"/>
    </g>
  </g>
</svg>
