<svg xmlns="http://www.w3.org/2000/svg" xmlns:xlink="http://www.w3.org/1999/xlink" width="113.413" height="80.609" viewBox="0 0 113.413 80.609">
  <defs>
    <clipPath id="clip-path">
      <path id="Tracé_332" data-name="Tracé 332" d="M622.835,181.253H556.277a8.222,8.222,0,0,0-8.2,8.2v47.756c0,4.509.079,8.2,4.588-7.934H626.52c4.509,16.132,4.512,12.443,4.512,7.934V189.45A8.222,8.222,0,0,0,622.835,181.253Z" transform="translate(-548.08 -181.253)" fill="none"/>
    </clipPath>
  </defs>
  <g id="Groupe_255" data-name="Groupe 255" transform="translate(-4969.979 395)">
    <rect id="Rectangle_76" data-name="Rectangle 76" width="113.399" height="69.679" transform="translate(4969.994 -384.07)" fill="#fff"/>
    <g id="Groupe_231" data-name="Groupe 231" transform="translate(4969.979 -395)">
      <text id="votre_projet_en_plus_simple" data-name="votre projet en plus simple" transform="translate(8.747 77.039)" font-size="8" font-family="MyriadPro-Regular, Myriad Pro"><tspan x="0" y="0">votre projet en plus simple</tspan></text>
      <g id="Groupe_229" data-name="Groupe 229" transform="translate(0 0)">
        <g id="Groupe_228" data-name="Groupe 228" clip-path="url(#clip-path)">
          <g id="Groupe_227" data-name="Groupe 227" transform="translate(8.183 16.269)">
            <path id="Tracé_331" data-name="Tracé 331" d="M591.47,205.52,560.965,228.4a2.326,2.326,0,0,0-.906,1.835v41.184a2.378,2.378,0,0,0,2.288,2.288h20.592a2.378,2.378,0,0,0,2.288-2.288V263.03a7.626,7.626,0,0,1,15.253,0v8.389a2.378,2.378,0,0,0,2.288,2.288h20.592a2.378,2.378,0,0,0,2.288-2.288V230.235a2.336,2.336,0,0,0-.906-1.835l-30.506-22.88A2.341,2.341,0,0,0,591.47,205.52Zm1.383,4.7,28.218,21.164v37.751H605.056v-6.1a12.2,12.2,0,0,0-24.405,0v6.1H564.635V231.379Z" transform="translate(-560.059 -205.068)" fill="#fcc265" stroke="#fcc265" stroke-miterlimit="10" stroke-width="1"/>
          </g>
        </g>
      </g>
      <g id="Groupe_230" data-name="Groupe 230" transform="translate(8.634 45.439)">
        <g id="Tracé_333" data-name="Tracé 333" transform="translate(-560.719 -247.769)" fill="#ef6361" stroke-miterlimit="10">
          <path d="M 574.2708740234375 271.8613891601562 C 574.0398559570312 271.8613891601562 573.8294677734375 271.7990112304688 573.6455688476562 271.676025390625 L 573.6380004882812 271.6709594726562 L 573.6305541992188 271.6655883789062 L 565.1755981445312 265.552978515625 L 565.1755981445312 270.4419250488281 L 565.1755981445312 270.5359497070312 L 565.1414184570312 270.62353515625 C 564.7645874023438 271.5884704589844 563.0645751953125 271.66357421875 562.552490234375 271.6636047363281 C 562.0191040039062 271.6636047363281 561.5146484375 271.5969543457031 561.1321411132812 271.4758605957031 C 560.3382568359375 271.2245788574219 560.2197265625 270.7741088867188 560.2197265625 270.5279541015625 L 560.2197265625 248.4869842529297 L 560.2197265625 248.4016265869141 L 560.2481079101562 248.3211212158203 C 560.5409545898438 247.4895172119141 562.0960693359375 247.2697906494141 562.8773803710938 247.2697906494141 C 563.953857421875 247.2697906494141 564.7181396484375 247.5872192382812 565.0294799804688 248.1636047363281 L 565.0855712890625 248.2674102783203 L 565.0892333984375 248.3853454589844 C 565.1502075195312 250.3394622802734 565.1253662109375 252.1430358886719 565.1054077148438 253.5922393798828 C 565.0968627929688 254.2116394042969 565.0894775390625 254.7465667724609 565.0894775390625 255.2157592773438 L 565.0894775390625 258.8226928710938 L 574.0970458984375 253.4500885009766 L 574.130615234375 253.4300537109375 L 574.1669311523438 253.4154968261719 C 574.3181762695312 253.3548278808594 574.4768676757812 253.3240661621094 574.6384887695312 253.3240661621094 C 575.6517333984375 253.3240661621094 576.3309936523438 254.4618377685547 576.5150756835938 254.810546875 C 576.8490600585938 255.4470367431641 577.2010498046875 256.3277893066406 576.9848022460938 256.9154968261719 C 576.9066772460938 257.1279602050781 576.7574462890625 257.2932434082031 576.5618896484375 257.3854675292969 L 568.6309814453125 262.117431640625 L 576.455810546875 267.8826599121094 L 576.5556030273438 267.9561767578125 L 576.6094360351562 268.0677795410156 C 576.9292602539062 268.7312927246094 576.8109130859375 269.5923767089844 576.28466796875 270.4302978515625 C 575.8373413085938 271.1426086425781 575.0411376953125 271.8613891601562 574.2708740234375 271.8613891601562 Z" stroke="none"/>
          <path d="M 574.2708740234375 271.3620910644531 C 575.2456665039062 271.3620910644531 576.73046875 269.4685974121094 576.15966796875 268.2846069335938 L 567.7298583984375 262.0736694335938 L 576.331787109375 256.9413452148438 C 576.761474609375 256.7684936523438 576.5032958984375 255.8626708984375 576.0735473632812 255.0436096191406 C 575.7431030273438 254.4175415039062 575.1936645507812 253.8233489990234 574.6384887695312 253.8233489990234 C 574.5430908203125 253.8233489990234 574.4474487304688 253.8409271240234 574.352783203125 253.8788909912109 L 564.5902099609375 259.7018432617188 L 564.5902099609375 255.2157592773438 C 564.5902099609375 253.6199951171875 564.6763305664062 251.1614227294922 564.5902099609375 248.4009094238281 C 564.3465576171875 247.9499206542969 563.6301879882812 247.7690734863281 562.8773803710938 247.7690734863281 C 561.9015502929688 247.7690734863281 560.86474609375 248.0731964111328 560.718994140625 248.4869842529297 L 560.718994140625 270.5279541015625 C 560.718994140625 270.9378967285156 561.6113891601562 271.1643676757812 562.552490234375 271.164306640625 C 563.4932861328125 271.1642761230469 564.482666015625 270.9378051757812 564.6763305664062 270.4419250488281 L 564.6763305664062 264.575927734375 L 573.923095703125 271.260986328125 C 574.0267944335938 271.330322265625 574.1444091796875 271.3620910644531 574.2708740234375 271.3620910644531 M 574.2708740234375 272.3606567382812 C 573.9439697265625 272.3606567382812 573.6317749023438 272.2674255371094 573.3680419921875 272.091064453125 L 573.3528442382812 272.0809020996094 L 573.3380737304688 272.0702209472656 L 565.6748657226562 266.530029296875 L 565.6748657226562 270.4419250488281 L 565.6748657226562 270.6299743652344 L 565.6065063476562 270.8051452636719 C 565.1279907226562 272.0304565429688 563.3113403320312 272.162841796875 562.552490234375 272.1628723144531 C 561.9693603515625 272.1629028320312 561.4114379882812 272.0879821777344 560.9815063476562 271.9518737792969 C 559.8433227539062 271.5916137695312 559.720458984375 270.8360595703125 559.720458984375 270.5279541015625 L 559.720458984375 248.4869842529297 L 559.720458984375 248.3162689208984 L 559.7771606445312 248.1552581787109 C 560.2511596679688 246.8093719482422 562.6099853515625 246.7705078125 562.8773803710938 246.7705078125 C 564.1458740234375 246.7705078125 565.066162109375 247.1809844970703 565.46875 247.9263153076172 L 565.5809326171875 248.1339263916016 L 565.5882568359375 248.3697662353516 C 565.6495971679688 250.3351287841797 565.6246337890625 252.1449279785156 565.6046142578125 253.59912109375 C 565.5961303710938 254.2166748046875 565.5887451171875 254.75 565.5887451171875 255.2157592773438 L 565.5887451171875 257.9435424804688 L 573.8412475585938 253.0213012695312 L 573.908447265625 252.9812164306641 L 573.9810791015625 252.9520874023438 C 574.1917114257812 252.8676147460938 574.4129028320312 252.8247985839844 574.6384887695312 252.8247985839844 C 575.5107421875 252.8247985839844 576.3773193359375 253.4799957275391 576.9566040039062 254.5774688720703 C 577.5110473632812 255.6341247558594 577.6777954101562 256.47802734375 577.453369140625 257.087890625 C 577.3323364257812 257.4168701171875 577.1018676757812 257.6755065917969 576.7986450195312 257.8255920410156 L 569.5320434570312 262.1611938476562 L 576.751953125 267.4806823730469 L 576.9515380859375 267.6277160644531 L 577.0591430664062 267.8509521484375 C 577.4552001953125 268.6724548339844 577.3270263671875 269.7093811035156 576.70751953125 270.6958312988281 C 576.2251586914062 271.4638366699219 575.297607421875 272.3606567382812 574.2708740234375 272.3606567382812 Z" stroke="none" fill="#ef6361"/>
        </g>
        <g id="Tracé_334" data-name="Tracé 334" transform="translate(-569.356 -251.203)" fill="#ef6361" stroke-miterlimit="10">
          <path d="M 605.3895874023438 275.7415161132812 C 604.94482421875 275.7415161132812 604.1597290039062 275.6400756835938 603.8990478515625 274.9607238769531 L 602.6920776367188 271.8191528320312 C 602.253173828125 272.472900390625 601.6700439453125 273.104736328125 600.9866333007812 273.6594543457031 C 599.970703125 274.4840698242188 598.7988891601562 275.0856018066406 597.68701171875 275.3533325195312 L 597.6807861328125 275.3548278808594 L 597.6744995117188 275.3561706542969 C 597.0139770507812 275.4973449707031 596.2698974609375 275.5719909667969 595.5228271484375 275.5719909667969 C 594.3084106445312 275.5719909667969 592.52197265625 275.3739929199219 590.907958984375 274.4307556152344 C 589.2283935546875 273.4491882324219 588.1371459960938 271.9068603515625 587.66455078125 269.8465576171875 L 587.66357421875 269.8423156738281 L 587.6626586914062 269.8380432128906 C 587.1366577148438 267.34619140625 587.7269287109375 264.5109558105469 589.2415771484375 262.2538757324219 C 591.0365600585938 259.5800476074219 593.795654296875 258.1075744628906 597.0106811523438 258.1075744628906 C 597.0342407226562 258.1073608398438 597.062255859375 258.1072387695312 597.0899047851562 258.1072387695312 C 599.4945678710938 258.1072387695312 601.3980712890625 258.9906311035156 602.9090576171875 260.8078918457031 C 604.244140625 262.4135131835938 605.1129150390625 264.5872802734375 605.8224487304688 266.4987487792969 C 606.255859375 267.6377868652344 606.5692138671875 268.3974304199219 606.845703125 269.067626953125 C 607.3541259765625 270.3002624511719 607.6902465820312 271.1150512695312 608.2827758789062 273.12353515625 C 608.5810546875 274.0379943847656 607.9647827148438 274.9701843261719 606.7100830078125 275.5006408691406 L 606.6957397460938 275.5067138671875 L 606.6810302734375 275.5118713378906 C 606.2591552734375 275.6599426269531 605.800537109375 275.7415161132812 605.3895874023438 275.7415161132812 Z M 596.740966796875 262.9239501953125 C 596.5782470703125 262.9239501953125 596.4063110351562 262.9304504394531 596.2299194335938 262.9432678222656 C 594.8771362304688 263.0548706054688 593.6372680664062 263.7711791992188 592.8330688476562 264.908203125 C 592.0286254882812 266.0455627441406 591.7677612304688 267.4597473144531 592.1173095703125 268.7880859375 L 592.1183471679688 268.7920227050781 L 592.1193237304688 268.7959899902344 C 592.5210571289062 270.4304504394531 593.4907836914062 271.1917114257812 595.1710205078125 271.1917724609375 C 595.1710815429688 271.1917724609375 595.1712036132812 271.1917724609375 595.1712646484375 271.1917724609375 C 595.7612915039062 271.1917724609375 596.4451293945312 271.0928344726562 597.2044067382812 270.8976440429688 C 598.2492065429688 270.5001831054688 599.32080078125 269.4137878417969 599.8770751953125 268.1856384277344 C 600.2022094726562 267.4676208496094 600.4998779296875 266.3763427734375 600.0712280273438 265.2550048828125 C 599.4420776367188 263.6214294433594 598.4459838867188 262.9239501953125 596.740966796875 262.9239501953125 Z" stroke="none"/>
          <path d="M 605.3895874023438 275.2422485351562 C 605.7491455078125 275.2422485351562 606.1517333984375 275.1685180664062 606.5156860351562 275.040771484375 C 607.3333129882812 274.6950988769531 608.0642700195312 274.0481872558594 607.8060913085938 273.2721557617188 C 606.9029541015625 270.209716796875 606.6017456054688 269.9508056640625 605.3543701171875 266.6724853515625 C 603.8572998046875 262.639404296875 602.061767578125 258.6065063476562 597.0899047851562 258.6065063476562 C 597.0636596679688 258.6065063476562 597.037109375 258.6066284179688 597.0106811523438 258.6068420410156 C 593.6134643554688 258.6068420410156 591.1617431640625 260.2893676757812 589.6561279296875 262.5320739746094 C 588.1511840820312 264.7747497558594 587.6777954101562 267.4922485351562 588.1511840820312 269.7349243164062 C 589.1273803710938 273.9906005859375 592.740966796875 275.0727233886719 595.5228271484375 275.0727233886719 C 596.2937622070312 275.0727233886719 597.0007934570312 274.9896240234375 597.5701293945312 274.867919921875 C 599.7206420898438 274.3501281738281 601.9564819335938 272.5384826660156 602.774169921875 270.6407470703125 L 604.3651733398438 274.7818603515625 C 604.4893188476562 275.1053771972656 604.8994750976562 275.2422485351562 605.3895874023438 275.2422485351562 M 596.740966796875 262.4246520996094 C 598.7557373046875 262.4246520996094 599.8652954101562 263.3310546875 600.53759765625 265.0767211914062 C 601.5267944335938 267.6643676757812 599.333251953125 270.6407470703125 597.35498046875 271.3744201660156 C 596.611328125 271.5672607421875 595.867919921875 271.6910705566406 595.1710205078125 271.6910705566406 C 593.5300903320312 271.6910095214844 592.1480102539062 271.0043029785156 591.6344604492188 268.9151611328125 C 590.8174438476562 265.8103942871094 593.0540161132812 262.7042236328125 596.1936645507812 262.4453125 C 596.3832397460938 262.4315185546875 596.5654296875 262.4246520996094 596.740966796875 262.4246520996094 M 605.3895874023438 276.2407836914062 C 604.0049438476562 276.2407836914062 603.5599365234375 275.470703125 603.4329223632812 275.1395874023438 L 602.5478515625 272.8359985351562 C 601.3383178710938 274.259521484375 599.569091796875 275.4136962890625 597.8038940429688 275.8387145996094 L 597.7914428710938 275.8417358398438 L 597.7788696289062 275.8444213867188 C 597.0845947265625 275.9928283691406 596.304443359375 276.0712890625 595.5228271484375 276.0712890625 C 594.2467651367188 276.0712890625 592.3665161132812 275.8614501953125 590.6560668945312 274.86181640625 C 588.852783203125 273.8079528808594 587.6825561523438 272.1581420898438 587.1779174804688 269.9581909179688 L 587.1759643554688 269.9496765136719 L 587.1741333007812 269.941162109375 C 586.6209106445312 267.3201293945312 587.23876953125 264.3423767089844 588.8269653320312 261.9756469726562 C 590.7169189453125 259.1604614257812 593.6216430664062 257.609619140625 597.0064086914062 257.6082763671875 C 597.0343017578125 257.6080627441406 597.062255859375 257.6079406738281 597.0899047851562 257.6079406738281 C 599.6521606445312 257.6079406738281 601.6812133789062 258.5502319335938 603.29296875 260.4886779785156 C 604.6775512695312 262.1538696289062 605.565673828125 264.3724365234375 606.2893676757812 266.3218078613281 C 606.7208862304688 267.4557800292969 607.0323486328125 268.2108764648438 607.3072509765625 268.8772277832031 C 607.8211059570312 270.1229858398438 608.1610717773438 270.9471435546875 608.759765625 272.9756774902344 C 609.1395263671875 274.1526184082031 608.4133911132812 275.3226013183594 606.904541015625 275.9605102539062 L 606.8757934570312 275.9726257324219 L 606.846435546875 275.9829711914062 C 606.3727416992188 276.1492309570312 605.8554077148438 276.2407836914062 605.3895874023438 276.2407836914062 Z M 596.2713012695312 263.4408569335938 C 595.06298828125 263.5418395996094 593.9585571289062 264.1815795898438 593.24072265625 265.1965026855469 C 592.521728515625 266.2130432128906 592.2882690429688 267.475830078125 592.6001586914062 268.6610412597656 L 592.6022338867188 268.6688842773438 L 592.6041259765625 268.6767883300781 C 592.951416015625 270.0896301269531 593.7191162109375 270.6924438476562 595.1710205078125 270.6925048828125 C 595.7122192382812 270.6925048828125 596.3446655273438 270.6012573242188 597.052001953125 270.4212646484375 C 597.9600830078125 270.0643615722656 598.9293212890625 269.0680541992188 599.4222412109375 267.9796447753906 C 599.708251953125 267.3481750488281 599.9720458984375 266.3938293457031 599.6048583984375 265.4332885742188 C 599.0480346679688 263.9874267578125 598.2448120117188 263.4232177734375 596.740966796875 263.4232177734375 C 596.591796875 263.4232177734375 596.4337768554688 263.4291381835938 596.2713012695312 263.4408569335938 Z" stroke="none" fill="#ef6361"/>
        </g>
        <g id="Tracé_335" data-name="Tracé 335" transform="translate(-579.989 -251.852)" fill="#ef6361" stroke-miterlimit="10">
          <path d="M 634.52392578125 275.8431091308594 L 622.3096923828125 275.8431091308594 L 621.2566528320312 275.8431091308594 L 621.9231567382812 275.0278015136719 C 623.7405395507812 272.8047790527344 625.8424682617188 270.4433288574219 628.73828125 267.3714294433594 C 629.4306030273438 266.6036071777344 629.8948974609375 266.02587890625 630.1991577148438 265.5534973144531 C 630.659912109375 264.8381958007812 630.5789794921875 264.6240539550781 630.578125 264.6219787597656 C 630.5709838867188 264.60498046875 630.4545288085938 264.5152893066406 630.07275390625 264.4986877441406 C 629.655517578125 264.4799194335938 629.2529296875 264.4704284667969 628.87548828125 264.4704284667969 C 627.068603515625 264.4704284667969 625.9893798828125 264.6783447265625 624.8468017578125 264.8984680175781 C 624.2166137695312 265.0198974609375 623.56494140625 265.1454467773438 622.7936401367188 265.2298583984375 L 622.7343139648438 265.236328125 L 622.6751098632812 265.2286682128906 C 621.827392578125 265.1187133789062 621.15771484375 264.2773742675781 621.0465087890625 263.1827087402344 C 620.9337768554688 262.0723571777344 621.43310546875 261.1580200195312 622.3186645507812 260.8533325195312 L 622.3546142578125 260.8409423828125 L 622.3920288085938 260.8341674804688 C 624.8799438476562 260.3831481933594 627.0350952148438 260.1544799804688 628.797607421875 260.1544799804688 C 630.4093627929688 260.1544799804688 631.728515625 260.347412109375 632.7186279296875 260.7279357910156 C 634.2509765625 261.2718505859375 635.1769409179688 262.0776977539062 635.4706420898438 263.1231079101562 C 635.8421630859375 264.4454040527344 635.2272338867188 266.0303344726562 633.5354614257812 268.1109619140625 L 633.5325317382812 268.1145324707031 L 633.5296020507812 268.1180419921875 L 633.2780151367188 268.4161682128906 C 632.2366943359375 269.6502685546875 631.4778442382812 270.5496520996094 630.5304565429688 271.6099548339844 L 634.5090942382812 271.6099548339844 C 634.530029296875 271.6088562011719 634.5508422851562 271.6083068847656 634.5713500976562 271.6083068847656 C 635.0526123046875 271.6083068847656 635.4678955078125 271.893798828125 635.74072265625 272.4122009277344 C 635.9452514648438 272.8008117675781 636.0579223632812 273.2967834472656 636.0579223632812 273.8087158203125 C 636.0579223632812 274.1628112792969 636.0028076171875 274.6781921386719 635.7404174804688 275.1227416992188 C 635.4661865234375 275.5872802734375 635.0341796875 275.8431091308594 634.52392578125 275.8431091308594 Z" stroke="none"/>
          <path d="M 628.797607421875 260.6537475585938 C 626.923583984375 260.6537475585938 624.74267578125 260.9154663085938 622.4810791015625 261.325439453125 C 620.9761962890625 261.8432312011719 621.4065551757812 264.5606689453125 622.7393188476562 264.7335205078125 C 624.8333740234375 264.5043640136719 625.9837036132812 263.9711303710938 628.87548828125 263.9711303710938 C 629.2505493164062 263.9711303710938 629.6549682617188 263.9801025390625 630.094482421875 263.9998779296875 C 632.0721435546875 264.0859375 630.7393798828125 265.8982543945312 629.1053466796875 267.7098999023438 C 626.13720703125 270.8584289550781 624.07275390625 273.1871948242188 622.3096923828125 275.3438110351562 L 634.52392578125 275.3438110351562 C 636.0103149414062 275.3438110351562 635.7777709960938 272.1072998046875 634.5713500976562 272.1075744628906 C 634.5557250976562 272.1075744628906 634.5398559570312 272.1081237792969 634.52392578125 272.1092224121094 L 629.4059448242188 272.1092224121094 C 630.825439453125 270.5564575195312 631.728515625 269.4778442382812 633.1480712890625 267.7959899902344 C 635.4276733398438 264.992431640625 636.20166015625 262.4908447265625 632.5455932617188 261.1963195800781 C 631.5599365234375 260.8161010742188 630.2741088867188 260.6537475585938 628.797607421875 260.6537475585938 M 628.797607421875 259.6551818847656 C 630.4911499023438 259.6551818847656 631.8305053710938 259.8529052734375 632.8915405273438 260.259521484375 C 634.5820922851562 260.8608703613281 635.611572265625 261.7788391113281 635.9512939453125 262.9880676269531 C 636.37060546875 264.4803466796875 635.7260131835938 266.2082824707031 633.9228515625 268.4259643554688 L 633.9170532226562 268.4330749511719 L 633.9111328125 268.4400634765625 L 633.6596069335938 268.7381591796875 C 632.9175415039062 269.6175842285156 632.2968139648438 270.3532409667969 631.6365356445312 271.1106567382812 L 634.4971923828125 271.1106567382812 C 634.5216674804688 271.1095886230469 634.5462646484375 271.1090393066406 634.5706787109375 271.1090087890625 C 635.2036743164062 271.10888671875 635.7730102539062 271.4663391113281 636.133056640625 272.0897827148438 C 636.6756591796875 273.0292358398438 636.697021484375 274.4644165039062 636.1817016601562 275.3570861816406 C 635.8202514648438 275.9832458496094 635.2160034179688 276.3423767089844 634.52392578125 276.3423767089844 L 622.3096923828125 276.3423767089844 L 620.2035522460938 276.3423767089844 L 621.53662109375 274.7117919921875 C 623.3609619140625 272.4801940917969 625.468994140625 270.1117858886719 628.3711547851562 267.0329895019531 C 629.3550415039062 265.94140625 629.7763061523438 265.3270874023438 629.95556640625 264.9933471679688 C 629.5792846679688 264.9776306152344 629.2167358398438 264.9696960449219 628.87548828125 264.9696960449219 C 627.1162719726562 264.9696960449219 626.0597534179688 265.1732482910156 624.9412231445312 265.3887329101562 C 624.3012084960938 265.5120544433594 623.6394653320312 265.6395568847656 622.8479614257812 265.7261657714844 L 622.729248046875 265.7391357421875 L 622.6109008789062 265.7237854003906 C 621.5320434570312 265.5838623046875 620.6845092773438 264.5596618652344 620.5498046875 263.2331237792969 C 620.4127197265625 261.8835754394531 621.0432739257812 260.7641296386719 622.1561889648438 260.3812255859375 L 622.2280883789062 260.3564758300781 L 622.302978515625 260.3428955078125 C 624.8201904296875 259.8865661621094 627.0053100585938 259.6551818847656 628.797607421875 259.6551818847656 Z" stroke="none" fill="#ef6361"/>
        </g>
        <g id="Tracé_336" data-name="Tracé 336" transform="translate(-588.809 -248.422)" fill="#ef6361" stroke-miterlimit="10">
          <path d="M 656.8745727539062 273.0019836425781 C 654.9070434570312 273.0019836425781 653.0650634765625 272.4635009765625 651.6879272460938 271.4857177734375 C 649.9577026367188 270.2572021484375 648.9823608398438 268.3553161621094 648.8673095703125 265.9856872558594 L 648.8667602539062 265.9736022949219 L 648.8667602539062 265.9614868164062 L 648.8667602539062 263.3731689453125 L 648.8667602539062 263.3645629882812 L 648.8670654296875 263.3559875488281 L 649.2970581054688 250.8550262451172 C 649.303466796875 249.9419708251953 650.239990234375 249.3292541503906 651.6315307617188 249.3292541503906 C 652.5502319335938 249.3292541503906 653.3448486328125 249.5924072265625 653.7570190429688 250.0331726074219 C 653.9862670898438 250.2782745361328 654.097412109375 250.5738067626953 654.0789184570312 250.8883819580078 L 653.8533935546875 257.6322326660156 C 654.8113403320312 257.0389709472656 655.8006591796875 256.6045227050781 657.1810913085938 256.3276672363281 C 657.94775390625 256.1705322265625 658.6947631835938 256.0906372070312 659.3994140625 256.0906372070312 C 661.637451171875 256.0906372070312 663.5272216796875 256.8940124511719 664.8643798828125 258.4139099121094 C 666.043212890625 259.7538452148438 666.7491455078125 261.6277160644531 666.8524169921875 263.6906127929688 C 666.9576416015625 265.4151916503906 666.6650390625 266.9505310058594 665.9826049804688 268.2542419433594 C 665.4014282226562 269.3645935058594 664.5366821289062 270.3108825683594 663.4124145507812 271.0667724609375 C 661.2203369140625 272.5405883789062 658.6624145507812 272.8901672363281 657.6644287109375 272.9720458984375 C 657.4025268554688 272.9920043945312 657.1377563476562 273.0019836425781 656.8745727539062 273.0019836425781 Z M 657.4124755859375 260.878662109375 C 654.8717041015625 261.6027526855469 653.3603515625 263.4779052734375 653.5616455078125 265.6566772460938 L 653.5619506835938 265.6605224609375 L 653.562255859375 265.6643981933594 C 653.6295776367188 266.5412902832031 654.035400390625 267.2849426269531 654.73583984375 267.81494140625 C 655.4215698242188 268.3338317871094 656.3604736328125 268.6195983886719 657.379638671875 268.6196594238281 C 657.4744262695312 268.6196594238281 657.571044921875 268.6171875 657.6670532226562 268.6122436523438 C 658.885009765625 268.4690551757812 660.051025390625 268.0289611816406 660.8680419921875 267.4036254882812 C 661.9047241210938 266.6101989746094 662.3960571289062 265.539794921875 662.3285522460938 264.2223205566406 C 662.2601928710938 263.2183837890625 661.9295043945312 262.3243103027344 661.397216796875 261.7043762207031 C 660.8002319335938 261.0090637207031 659.9735717773438 260.656494140625 658.9403076171875 260.656494140625 C 658.4701538085938 260.656494140625 657.9561157226562 260.7312622070312 657.4124755859375 260.878662109375 Z" stroke="none"/>
          <path d="M 656.8745727539062 272.5027160644531 C 657.1290283203125 272.5027160644531 657.3795166015625 272.4930114746094 657.6235961914062 272.4744262695312 C 660.2467651367188 272.2592163085938 666.7843017578125 270.74951171875 666.3539428710938 263.7188110351562 C 666.1668701171875 259.9570007324219 663.8873291015625 256.5899353027344 659.3994140625 256.5899353027344 C 658.7406616210938 256.5899353027344 658.0335083007812 256.6626281738281 657.279296875 256.8171997070312 C 655.5592041015625 257.1621704101562 654.4839477539062 257.7660522460938 653.3219604492188 258.5858154296875 L 653.5801391601562 250.8644561767578 C 653.6248779296875 250.1974029541016 652.6177978515625 249.8285369873047 651.6315307617188 249.8285369873047 C 650.7047729492188 249.8285369873047 649.7963256835938 250.1542816162109 649.7963256835938 250.8644561767578 L 649.3660278320312 263.3731689453125 L 649.3660278320312 265.9614868164062 C 649.6050415039062 270.8855590820312 653.5867309570312 272.5027160644531 656.8745727539062 272.5027160644531 M 658.9403076171875 260.1572265625 C 661.4630126953125 260.1572265625 662.6839599609375 262.0704040527344 662.8269653320312 264.19287109375 C 662.999755859375 267.5142211914062 659.945556640625 268.851806640625 657.708984375 269.1100158691406 C 657.5983276367188 269.1159973144531 657.4887084960938 269.1189270019531 657.379638671875 269.1189270019531 C 655.1155395507812 269.1188049316406 653.2286376953125 267.8422546386719 653.064453125 265.7026062011719 C 652.8492431640625 263.3731689453125 654.3978881835938 261.2172241210938 657.279296875 260.3974609375 C 657.8858032226562 260.2327880859375 658.4385986328125 260.1572265625 658.9403076171875 260.1572265625 M 656.8745727539062 273.5012817382812 C 653.1184692382812 273.5012817382812 648.6370239257812 271.539306640625 648.36865234375 266.0098876953125 L 648.3674926757812 265.9857177734375 L 648.3674926757812 265.9614868164062 L 648.3674926757812 263.3731689453125 L 648.3674926757812 263.3559875488281 L 648.3680419921875 263.3388366699219 L 648.7978515625 250.8441925048828 C 648.8104248046875 249.6384735107422 649.9459838867188 248.8299713134766 651.6315307617188 248.8299713134766 C 652.6859130859375 248.8299713134766 653.6168212890625 249.1522827148438 654.1217041015625 249.6921539306641 C 654.4404296875 250.0329895019531 654.6019287109375 250.4649658203125 654.5776977539062 250.9107055664062 L 654.3822021484375 256.7579956054688 C 655.1577758789062 256.3604431152344 656.0060424804688 256.0541076660156 657.0829467773438 255.838134765625 C 657.8804321289062 255.6746826171875 658.6611938476562 255.5913696289062 659.3994140625 255.5913696289062 C 661.7850952148438 255.5913696289062 663.8045043945312 256.4533386230469 665.2391967773438 258.0841064453125 C 666.491943359375 259.508056640625 667.2418212890625 261.4897155761719 667.3510131835938 263.6642150878906 C 667.5553588867188 267.031005859375 666.2898559570312 269.7337951660156 663.6909790039062 271.4811096191406 C 661.4014282226562 273.0204772949219 658.7422485351562 273.3845825195312 657.7052612304688 273.4696350097656 L 657.7023315429688 273.4698791503906 L 657.699462890625 273.4700927734375 C 657.427978515625 273.4907836914062 657.1504516601562 273.5012817382812 656.8745727539062 273.5012817382812 Z M 657.5465698242188 261.3595886230469 C 655.2495727539062 262.0152893066406 653.8807373046875 263.6834106445312 654.0587768554688 265.6107482910156 L 654.0595092773438 265.6184692382812 L 654.06005859375 265.6261901855469 C 654.1923217773438 267.3490295410156 655.8226318359375 268.1203002929688 657.379638671875 268.1203918457031 C 657.4605712890625 268.1203918457031 657.5429077148438 268.1183776855469 657.624755859375 268.1144714355469 C 658.4253540039062 268.017333984375 661.9884033203125 267.4058227539062 661.8301391601562 264.2523193359375 C 661.7684326171875 263.3567810058594 661.4802856445312 262.5675964355469 661.0183715820312 262.0296020507812 C 660.5205688476562 261.4497680664062 659.8214111328125 261.1557922363281 658.9403076171875 261.1557922363281 C 658.5152587890625 261.1557922363281 658.0463256835938 261.224365234375 657.5465698242188 261.3595886230469 Z" stroke="none" fill="#ef6361"/>
        </g>
        <g id="Tracé_337" data-name="Tracé 337" transform="translate(-598.204 -251.203)" fill="#ef6361" stroke-miterlimit="10">
          <path d="M 696.4284057617188 275.7415161132812 C 695.983642578125 275.7415161132812 695.1985473632812 275.6400756835938 694.9379272460938 274.960693359375 L 693.73046875 271.8194580078125 C 693.2919311523438 272.4730529785156 692.708984375 273.104736328125 692.0255737304688 273.6594543457031 C 691.0097045898438 274.4840087890625 689.8378295898438 275.0855712890625 688.725830078125 275.3533325195312 L 688.7196044921875 275.3548278808594 L 688.7133178710938 275.3561706542969 C 688.0527954101562 275.4973449707031 687.3087768554688 275.5719909667969 686.5617065429688 275.5719909667969 C 685.3472900390625 275.5719909667969 683.560791015625 275.3740234375 681.9466552734375 274.4307556152344 C 680.2670288085938 273.44921875 679.1755981445312 271.9068908691406 678.7026977539062 269.8466186523438 L 678.7017211914062 269.8422546386719 L 678.7008056640625 269.8379211425781 C 678.17529296875 267.3450012207031 678.765869140625 264.5097961425781 680.2803955078125 262.2537841796875 C 682.0753784179688 259.5800476074219 684.8345336914062 258.1075744628906 688.0494995117188 258.1075744628906 C 688.0730590820312 258.1073608398438 688.10107421875 258.1072387695312 688.1287231445312 258.1072387695312 C 690.5333862304688 258.1072387695312 692.4368896484375 258.9906311035156 693.9478759765625 260.8078918457031 C 695.282958984375 262.4135131835938 696.1517333984375 264.5872802734375 696.8612670898438 266.4987487792969 C 697.2946166992188 267.6377563476562 697.60791015625 268.3973693847656 697.88427734375 269.0675659179688 C 698.392578125 270.3001098632812 698.7286376953125 271.1150512695312 699.321533203125 273.1232299804688 C 699.619873046875 274.0374145507812 699.003662109375 274.9697570800781 697.7489624023438 275.5005798339844 L 697.7345581054688 275.5066833496094 L 697.7198486328125 275.5118713378906 C 697.2979736328125 275.6599426269531 696.83935546875 275.7415161132812 696.4284057617188 275.7415161132812 Z M 687.7797241210938 262.9239501953125 C 687.6170043945312 262.9239501953125 687.445068359375 262.9304504394531 687.2686767578125 262.9432678222656 C 685.9158935546875 263.0548706054688 684.6760864257812 263.7711791992188 683.8718872070312 264.9081726074219 C 683.0674438476562 266.0455322265625 682.8065795898438 267.459716796875 683.1561279296875 268.7880859375 L 683.1571655273438 268.7920837402344 L 683.1581420898438 268.7960815429688 C 683.5595092773438 270.4304809570312 684.5291137695312 271.1917114257812 686.20947265625 271.1917724609375 C 686.2095336914062 271.1917724609375 686.2096557617188 271.1917724609375 686.209716796875 271.1917724609375 C 686.7997436523438 271.1917724609375 687.4835205078125 271.0928039550781 688.2425537109375 270.8976135253906 C 689.2876586914062 270.5001525878906 690.3594970703125 269.4137573242188 690.915771484375 268.1856994628906 C 691.2410278320312 267.4676818847656 691.5387573242188 266.3764038085938 691.1100463867188 265.2550048828125 C 690.4803466796875 263.6214599609375 689.4841918945312 262.9239501953125 687.7797241210938 262.9239501953125 Z" stroke="none"/>
          <path d="M 696.428466796875 275.2422485351562 C 696.7879638671875 275.2422485351562 697.1905517578125 275.1685180664062 697.554443359375 275.040771484375 C 698.3714599609375 274.6950988769531 699.1031494140625 274.0481872558594 698.8449096679688 273.2721557617188 C 697.941162109375 270.209716796875 697.6405029296875 269.9508056640625 696.3931884765625 266.6724853515625 C 694.8961181640625 262.639404296875 693.1005859375 258.6065063476562 688.1287231445312 258.6065063476562 C 688.1024780273438 258.6065063476562 688.075927734375 258.6066284179688 688.0494995117188 258.6068420410156 C 684.651611328125 258.6068420410156 682.2005615234375 260.2893676757812 680.6949462890625 262.5320739746094 C 679.1893310546875 264.7747497558594 678.7166137695312 267.4922485351562 679.1893310546875 269.7349243164062 C 680.1660766601562 273.9906005859375 683.77978515625 275.0727233886719 686.5617065429688 275.0727233886719 C 687.3325805664062 275.0727233886719 688.0396118164062 274.9896240234375 688.6089477539062 274.867919921875 C 690.7593994140625 274.3501281738281 692.9959716796875 272.5384826660156 693.8123168945312 270.6407470703125 L 695.404052734375 274.7818603515625 C 695.5281372070312 275.1053771972656 695.9383544921875 275.2422485351562 696.428466796875 275.2422485351562 M 687.7797241210938 262.4246520996094 C 689.79443359375 262.4246520996094 690.9035034179688 263.3310546875 691.576416015625 265.0767211914062 C 692.5656127929688 267.6643676757812 690.3720703125 270.6407470703125 688.39306640625 271.3744201660156 C 687.6495971679688 271.5672607421875 686.9063110351562 271.6910705566406 686.2094116210938 271.6910705566406 C 684.568603515625 271.6910095214844 683.1863403320312 271.0043029785156 682.6732788085938 268.9151611328125 C 681.8562622070312 265.8103942871094 684.0927734375 262.7042236328125 687.232421875 262.4453125 C 687.4219970703125 262.4315185546875 687.6041870117188 262.4246520996094 687.7797241210938 262.4246520996094 M 696.4284057617188 276.2407836914062 C 695.0437622070312 276.2407836914062 694.5987548828125 275.4706420898438 694.4717407226562 275.1395263671875 L 693.5864868164062 272.8363952636719 C 692.37744140625 274.2596740722656 690.6085815429688 275.4135437011719 688.8427124023438 275.8387145996094 L 688.8302612304688 275.8417358398438 L 688.8176879882812 275.8444213867188 C 688.1234130859375 275.9928283691406 687.34326171875 276.0712890625 686.5617065429688 276.0712890625 C 685.2855834960938 276.0712890625 683.4053344726562 275.8614501953125 681.6947631835938 274.8618469238281 C 679.8914184570312 273.8080139160156 678.7210083007812 272.1582336425781 678.216064453125 269.9583129882812 L 678.214111328125 269.9496154785156 L 678.2122192382812 269.9408874511719 C 677.6595458984375 267.3188171386719 678.2777709960938 264.3410949707031 679.8659057617188 261.9754943847656 C 681.7557373046875 259.1604614257812 684.6604614257812 257.609619140625 688.0452270507812 257.6082763671875 C 688.0731201171875 257.6080627441406 688.10107421875 257.6079406738281 688.1287231445312 257.6079406738281 C 690.6909790039062 257.6079406738281 692.7200317382812 258.5502319335938 694.331787109375 260.4886779785156 C 695.71630859375 262.1537475585938 696.6044311523438 264.3722839355469 697.3280639648438 266.3215637207031 C 697.7595825195312 267.4556274414062 698.071044921875 268.2108154296875 698.3458862304688 268.877197265625 C 698.859619140625 270.1230163574219 699.1994018554688 270.9468078613281 699.7985229492188 272.9755554199219 C 700.1784057617188 274.1521606445312 699.4523315429688 275.3220520019531 697.9435424804688 275.9604187011719 L 697.9147338867188 275.9725952148438 L 697.8851928710938 275.9829406738281 C 697.41162109375 276.1492309570312 696.8942260742188 276.2407836914062 696.4284057617188 276.2407836914062 Z M 687.3101196289062 263.4408569335938 C 686.101806640625 263.5418395996094 684.9973754882812 264.1815490722656 684.279541015625 265.1964721679688 C 683.560546875 266.2130126953125 683.3270874023438 267.4757995605469 683.6389770507812 268.6610412597656 L 683.6410522460938 268.6690063476562 L 683.6430053710938 268.677001953125 C 683.989990234375 270.0896911621094 684.7575073242188 270.6924438476562 686.20947265625 270.6925048828125 C 686.7506103515625 270.6925048828125 687.3829956054688 270.6012573242188 688.090087890625 270.4212951660156 C 688.9984130859375 270.0644836425781 689.9679565429688 269.0681457519531 690.4609985351562 267.9796752929688 C 690.7470092773438 267.3482360839844 691.0108642578125 266.3938903808594 690.6436767578125 265.4332885742188 C 690.0863647460938 263.9875183105469 689.2830810546875 263.4232177734375 687.7797241210938 263.4232177734375 C 687.6305541992188 263.4232177734375 687.4725952148438 263.4291381835938 687.3101196289062 263.4408569335938 Z" stroke="none" fill="#ef6361"/>
        </g>
      </g>
    </g>
  </g>
</svg>
