<svg xmlns="http://www.w3.org/2000/svg" width="154.805" height="144.576" viewBox="0 0 154.805 144.576">
  <g id="Groupe_212" data-name="Groupe 212" transform="matrix(0.891, 0.454, -0.454, 0.891, 72.443, -40.39)">
    <g id="Groupe_163" data-name="Groupe 163" transform="translate(10.663 92.248) rotate(9)">
      <path id="Tracé_58" data-name="Tracé 58" d="M60.934,19.967h0q5.931,8.49,11.862,16.977Q36.4,48.631,0,60.316L46.984,0q5.951,8.519,11.9,17.034l3.69-.475Q61.282,17.77,60,18.957Z" transform="translate(0.824 0)" fill="#cd541f"/>
      <g id="Groupe_127" data-name="Groupe 127" transform="translate(0 7.843)">
        <path id="Tracé_59" data-name="Tracé 59" d="M58.885,17.036Q29.442,38.674,0,60.318,23.491,30.158,46.984,0,52.935,8.519,58.885,17.036Z" transform="translate(0 0)" fill="#eea351"/>
        <path id="Tracé_60" data-name="Tracé 60" d="M72.8,16.977,0,40.349Q30.466,20.173,60.934,0,66.866,8.487,72.8,16.977Z" transform="translate(0 19.969)" fill="#eea250"/>
        <path id="Tracé_61" data-name="Tracé 61" d="M62.574,0Q61.282,1.211,60,2.4l.935,1.01v0Q30.468,23.583,0,43.759,29.442,22.115,58.885.476Z" transform="translate(0 16.559)" fill="#f4572d"/>
      </g>
    </g>
    <g id="Groupe_204" data-name="Groupe 204" transform="translate(81.86 0)">
      <path id="Tracé_173" data-name="Tracé 173" d="M1.365,0A98.739,98.739,0,0,1,0,14.966l3.266.445A102.14,102.14,0,0,0,4.668.026Z" transform="translate(11.326 21.379) rotate(-21)" fill="#eea250"/>
      <path id="Tracé_175" data-name="Tracé 175" d="M3.106,0,0,.324Q.129,1.56.3,2.815c.321,2.391.755,4.817,1.378,7.617.349,1.574.847,3.516,1.411,5.457l3-.868A87.218,87.218,0,0,1,3.39,2.4Q3.228,1.193,3.106,0Z" transform="matrix(-0.978, 0.208, -0.208, -0.978, 13.881, 15.541)" fill="#eea250"/>
      <path id="Tracé_176" data-name="Tracé 176" d="M2.474,15.369,0,13.468a31.814,31.814,0,0,0,3.972-6.69A35.331,35.331,0,0,0,6.093,0L9.148.645A38.477,38.477,0,0,1,6.835,8.023,34.9,34.9,0,0,1,2.474,15.369Z" transform="translate(15.107 83.517)" fill="#eea250"/>
      <path id="Tracé_177" data-name="Tracé 177" d="M15.107,2.436a42.783,42.783,0,0,1-14.219,7.6L0,7.044A39.6,39.6,0,0,0,13.153,0Z" transform="translate(0 101.451)" fill="#eea250"/>
      <path id="Tracé_182" data-name="Tracé 182" d="M.764,15.7q.053-1.388.051-2.8A106.251,106.251,0,0,0,0,.366L3.1,0a109.582,109.582,0,0,1,.837,12.9q0,1.474-.055,2.923Z" transform="translate(22.286 62.878)" fill="#eea250"/>
      <path id="Tracé_184" data-name="Tracé 184" d="M5.509,12.82q.231,1.275.447,2.553l-3.082.516q-.208-1.259-.438-2.516c-.469-2.608-.974-5.207-1.48-7.809C.637,3.905.313,2.245,0,.577L3.066,0q.469,2.488.956,4.967C4.529,7.586,5.038,10.2,5.509,12.82Z" transform="translate(19.479 41.326)" fill="#eea250"/>
    </g>
  </g>
</svg>
